<?xml version="1.0" encoding="utf-8"?>
<!-- Generator: Adobe Illustrator 16.0.0, SVG Export Plug-In . SVG Version: 6.00 Build 0)  -->
<!DOCTYPE svg PUBLIC "-//W3C//DTD SVG 1.1//EN" "http://www.w3.org/Graphics/SVG/1.1/DTD/svg11.dtd">
<svg version="1.1" id="Layer_1" xmlns="http://www.w3.org/2000/svg" xmlns:xlink="http://www.w3.org/1999/xlink" x="0px" y="0px"
	 width="344.367px" height="77.596px" viewBox="0 0 344.367 77.596" enable-background="new 0 0 344.367 77.596"
	 xml:space="preserve">
<g>
	<defs>
		<rect id="SVGID_1_" y="0" width="344.367" height="77.596"/>
	</defs>
	<clipPath id="SVGID_2_">
		<use xlink:href="#SVGID_1_"  overflow="visible"/>
	</clipPath>
	<path clip-path="url(#SVGID_2_)" fill="#2C2C2B" d="M99.489,44.646l-1.4,0.423c-0.847,0.239-1.4-0.087-1.661-0.978L92.194,29.5
		c-0.087-0.304-0.175-0.505-0.261-0.603c-0.087-0.098-0.206-0.146-0.358-0.146h-0.261c-0.174,0-0.304,0.048-0.39,0.146
		c-0.087,0.098-0.175,0.32-0.261,0.668l-4.136,14.722c-0.131,0.521-0.321,0.864-0.571,1.026c-0.249,0.163-0.635,0.168-1.156,0.017
		l-1.368-0.424c-0.716-0.217-0.934-0.771-0.651-1.66l4.885-16.352c0.24-0.804,0.548-1.357,0.928-1.661s0.864-0.456,1.45-0.456h2.866
		c0.608,0,1.091,0.146,1.45,0.439c0.358,0.293,0.656,0.842,0.895,1.645l4.821,16.091c0.152,0.456,0.19,0.82,0.114,1.091
		C100.114,44.314,99.881,44.515,99.489,44.646 M107.535,49.856h-1.954c-0.63,0-0.945-0.348-0.945-1.042V34.677H99.62
		c-0.413,0-0.689-0.069-0.831-0.212c-0.141-0.14-0.211-0.406-0.211-0.797V32.17c0-0.391,0.07-0.657,0.211-0.798
		c0.142-0.142,0.418-0.212,0.831-0.212h5.016v-6.547c0-0.695,0.315-1.042,0.945-1.042h1.954c0.63,0,0.944,0.347,0.944,1.042v24.201
		C108.479,49.509,108.165,49.856,107.535,49.856"/>
	<path clip-path="url(#SVGID_2_)" fill="#2C2C2B" d="M113.725,44.026h9.51c3.193,0,6.2-0.174,9.023-0.521
		c0.607-0.064,0.912,0.186,0.912,0.75v1.759c0,0.304-0.06,0.51-0.18,0.618c-0.119,0.109-0.331,0.185-0.634,0.228
		c-3.041,0.349-6.102,0.521-9.186,0.521h-9.445c-0.413,0-0.691-0.07-0.831-0.211c-0.142-0.142-0.212-0.407-0.212-0.799v-1.336
		c0-0.39,0.07-0.655,0.212-0.797C113.033,44.097,113.312,44.026,113.725,44.026 M113.398,27.968v-1.206
		c0-0.39,0.07-0.656,0.211-0.798c0.141-0.14,0.418-0.212,0.831-0.212h6.091v-1.725c0-0.695,0.314-1.043,0.945-1.043h2.085
		c0.629,0,0.944,0.348,0.944,1.043v1.725h6.026c0.412,0,0.689,0.072,0.83,0.212c0.141,0.142,0.211,0.408,0.211,0.798v1.206
		c0,0.39-0.07,0.657-0.211,0.798c-0.141,0.142-0.418,0.211-0.83,0.211H114.44c-0.413,0-0.69-0.069-0.831-0.211
		C113.468,28.625,113.398,28.358,113.398,27.968 M115.156,36.045c0-1.714,0.614-3.153,1.841-4.315
		c1.226-1.161,2.872-1.743,4.935-1.743h1.368c1.975,0,3.599,0.587,4.869,1.76c1.271,1.172,1.906,2.605,1.906,4.298
		c0,1.586-0.635,2.959-1.906,4.122c-1.27,1.161-2.894,1.742-4.869,1.742h-1.368c-2.042,0-3.681-0.575-4.919-1.727
		C115.776,39.032,115.156,37.653,115.156,36.045 M118.871,36.013c0,0.803,0.314,1.498,0.945,2.085
		c0.629,0.585,1.411,0.879,2.344,0.879h0.912c0.913,0,1.689-0.299,2.329-0.895c0.641-0.598,0.961-1.287,0.961-2.069
		c0-0.847-0.32-1.574-0.961-2.182c-0.64-0.608-1.416-0.912-2.329-0.912h-0.912c-0.955,0-1.742,0.298-2.361,0.896
		C119.179,34.413,118.871,35.146,118.871,36.013 M137.338,49.856h-1.954c-0.63,0-0.945-0.348-0.945-1.042V24.613
		c0-0.695,0.315-1.042,0.945-1.042h1.954c0.629,0,0.945,0.347,0.945,1.042v24.201C138.283,49.509,137.967,49.856,137.338,49.856"/>
	<path clip-path="url(#SVGID_2_)" fill="#2C2C2B" d="M158.282,38.814l-1.302,0.554c-0.674,0.305-1.196,0.087-1.564-0.652
		l-3.518-7.361c-0.282-0.564-0.63-0.847-1.042-0.847c-0.413,0-0.76,0.305-1.043,0.913l-3.908,8.24
		c-0.369,0.782-0.934,0.989-1.694,0.619l-1.368-0.651c-0.326-0.151-0.51-0.347-0.553-0.585c-0.044-0.24,0.043-0.566,0.26-0.978
		l4.234-8.762v-0.033h-3.322c-0.413,0-0.69-0.069-0.831-0.212c-0.141-0.139-0.211-0.406-0.211-0.797v-1.27
		c0-0.369,0.07-0.624,0.211-0.766c0.141-0.14,0.418-0.212,0.831-0.212h5.537v-2.442c0-0.717,0.315-1.075,0.945-1.075h1.954
		c0.63,0,0.945,0.358,0.945,1.075v2.442h5.765c0.413,0,0.689,0.072,0.83,0.212c0.142,0.142,0.212,0.397,0.212,0.766v1.27
		c0,0.391-0.07,0.658-0.212,0.797c-0.141,0.143-0.417,0.212-0.83,0.212h-3.681l3.811,7.883c0.217,0.413,0.298,0.749,0.244,1.01
		C158.928,38.423,158.694,38.64,158.282,38.814 M147.436,46.729c0-1.889,0.743-3.403,2.231-4.544c1.487-1.14,3.675-1.71,6.564-1.71
		h2.605c2.801,0,4.967,0.581,6.498,1.742c1.531,1.162,2.297,2.667,2.297,4.512c0,1.715-0.772,3.164-2.313,4.349
		c-1.542,1.183-3.703,1.775-6.482,1.775h-2.605c-2.867,0-5.05-0.587-6.548-1.76S147.436,48.466,147.436,46.729 M151.376,46.697
		c0,0.89,0.428,1.611,1.287,2.166c0.857,0.554,2.165,0.83,3.925,0.83h1.888c1.695,0,2.987-0.282,3.877-0.847
		c0.89-0.565,1.335-1.281,1.335-2.149c0-0.934-0.445-1.678-1.335-2.231c-0.89-0.554-2.182-0.831-3.877-0.831h-1.888
		c-1.76,0-3.068,0.277-3.925,0.831C151.805,45.02,151.376,45.764,151.376,46.697 M166.49,39.987h-1.954
		c-0.63,0-0.944-0.348-0.944-1.042v-5.18h-4.203c-0.412,0-0.689-0.069-0.83-0.212c-0.141-0.14-0.211-0.395-0.211-0.764v-1.368
		c0-0.391,0.07-0.658,0.211-0.798c0.141-0.142,0.418-0.212,0.83-0.212h4.203v-6.123c0-0.696,0.314-1.043,0.944-1.043h1.954
		c0.63,0,0.945,0.347,0.945,1.043v14.657C167.435,39.64,167.12,39.987,166.49,39.987"/>
	<path clip-path="url(#SVGID_2_)" fill="#2C2C2B" d="M171.799,47.315v-1.368c0-0.39,0.07-0.656,0.212-0.797
		c0.142-0.142,0.418-0.212,0.831-0.212h9.608v-7.036c0-0.716,0.314-1.076,0.944-1.076h2.117c0.629,0,0.945,0.36,0.945,1.076v7.036
		h9.641c0.412,0,0.689,0.07,0.83,0.212c0.142,0.141,0.212,0.407,0.212,0.797v1.368c0,0.392-0.07,0.657-0.212,0.798
		c-0.141,0.142-0.418,0.211-0.83,0.211h-23.256c-0.413,0-0.689-0.069-0.831-0.211C171.869,47.973,171.799,47.707,171.799,47.315
		 M184.73,27.969h-0.488c-0.37,0-0.631,0.06-0.782,0.178c-0.152,0.12-0.413,0.451-0.782,0.994l-6.481,9.251
		c-0.456,0.695-1.054,0.836-1.791,0.423l-1.304-0.749c-0.391-0.217-0.602-0.451-0.635-0.701c-0.032-0.249,0.104-0.581,0.407-0.993
		l7.296-10.488c0.825-1.216,1.813-1.824,2.964-1.824h2.704c0.629,0,1.156,0.125,1.579,0.375c0.424,0.25,0.885,0.732,1.385,1.449
		l7.328,10.554c0.261,0.389,0.359,0.706,0.293,0.944c-0.064,0.239-0.293,0.488-0.683,0.749l-1.205,0.749
		c-0.696,0.413-1.282,0.26-1.76-0.456l-6.481-9.283c-0.348-0.522-0.603-0.847-0.766-0.978
		C185.366,28.033,185.099,27.969,184.73,27.969"/>
	<path clip-path="url(#SVGID_2_)" fill="#2C2C2B" d="M201.636,37.121V25.362c0-0.716,0.313-1.074,0.943-1.074h2.084
		c0.63,0,0.945,0.358,0.945,1.074v10.586c0,0.37,0.06,0.619,0.179,0.749s0.375,0.197,0.766,0.197h9.251
		c0.411,0,0.688,0.07,0.831,0.211c0.141,0.141,0.211,0.407,0.211,0.797v1.271c0,0.37-0.07,0.625-0.211,0.766
		c-0.143,0.142-0.42,0.211-0.831,0.211h-11.107c-1.151,0-1.949-0.26-2.394-0.782C201.856,38.848,201.636,38.099,201.636,37.121
		 M224.825,51.941h-16.579c-1.954,0-2.931-0.913-2.931-2.736V43.31c0-0.694,0.314-1.042,0.944-1.042h2.02
		c0.629,0,0.944,0.348,0.944,1.042v4.299c0,0.392,0.055,0.652,0.163,0.782c0.107,0.13,0.337,0.195,0.684,0.195h14.755
		c0.413,0,0.689,0.07,0.831,0.212c0.141,0.141,0.211,0.395,0.211,0.766v1.368c0,0.391-0.07,0.656-0.211,0.798
		C225.515,51.871,225.238,51.941,224.825,51.941 M224.468,43.798h-1.955c-0.63,0-0.944-0.347-0.944-1.042v-7.523h-7.459
		c-0.412,0-0.689-0.072-0.83-0.212c-0.142-0.142-0.212-0.408-0.212-0.799v-1.303c0-0.391,0.07-0.656,0.212-0.798
		c0.141-0.14,0.418-0.212,0.83-0.212h7.459v-2.051h-7.459c-0.412,0-0.689-0.071-0.83-0.212c-0.142-0.141-0.212-0.408-0.212-0.798
		v-1.335c0-0.369,0.07-0.624,0.212-0.767c0.141-0.139,0.418-0.211,0.83-0.211h7.459v-2.247c0-0.695,0.314-1.043,0.944-1.043h1.955
		c0.629,0,0.943,0.348,0.943,1.043v18.468C225.411,43.451,225.097,43.798,224.468,43.798"/>
	<path clip-path="url(#SVGID_2_)" fill="#2C2C2B" d="M229.777,39.824v-1.302c0-0.391,0.068-0.657,0.211-0.798
		c0.142-0.141,0.418-0.212,0.831-0.212h23.256c0.412,0,0.688,0.071,0.831,0.212c0.141,0.141,0.211,0.407,0.211,0.798v1.302
		c0,0.392-0.07,0.657-0.211,0.799c-0.143,0.141-0.419,0.211-0.831,0.211h-9.219v5.081c0,0.694-0.314,1.043-0.943,1.043h-2.183
		c-0.631,0-0.944-0.349-0.944-1.043v-5.081h-9.967c-0.413,0-0.689-0.07-0.831-0.211C229.846,40.481,229.777,40.216,229.777,39.824
		 M231.828,32.3v-6.872c0-0.522,0.108-0.896,0.326-1.124c0.217-0.228,0.586-0.342,1.107-0.342h18.37
		c0.521,0,0.891,0.114,1.107,0.342s0.326,0.602,0.326,1.124v7.882c0,1.107-0.543,1.661-1.629,1.661h-16.938
		c-0.999,0-1.693-0.217-2.084-0.651C232.023,33.886,231.828,33.212,231.828,32.3 M252.479,52.104h-17.491
		c-1.934,0-2.899-0.912-2.899-2.736V43.83c0-0.694,0.315-1.042,0.944-1.042h2.118c0.629,0,0.944,0.348,0.944,1.042v3.975
		c0,0.39,0.055,0.646,0.162,0.765c0.109,0.119,0.337,0.18,0.684,0.18h15.538c0.411,0,0.688,0.069,0.83,0.212
		c0.141,0.141,0.212,0.396,0.212,0.766v1.367c0,0.391-0.071,0.657-0.212,0.799C253.168,52.033,252.891,52.104,252.479,52.104
		 M235.672,27.089V30.9c0,0.391,0.054,0.646,0.163,0.765c0.108,0.12,0.358,0.179,0.749,0.179h12.117
		c0.217,0,0.357-0.037,0.424-0.113c0.064-0.077,0.097-0.245,0.097-0.505v-4.137H235.672z"/>
	<path clip-path="url(#SVGID_2_)" fill="#2C2C2B" d="M258.831,44.189h6.742v-3.16c-1.737-0.195-3.116-0.809-4.137-1.84
		c-1.021-1.031-1.53-2.231-1.53-3.599c0-1.629,0.606-2.986,1.823-4.072c1.215-1.085,2.855-1.628,4.918-1.628h1.693
		c1.977,0,3.595,0.548,4.854,1.645c1.26,1.097,1.89,2.448,1.89,4.055c0,1.347-0.521,2.536-1.564,3.566
		c-1.041,1.033-2.398,1.656-4.07,1.874v3.16c3.062-0.087,5.591-0.261,7.59-0.521c0.606-0.065,0.912,0.185,0.912,0.749v1.759
		c0,0.305-0.062,0.511-0.181,0.619s-0.331,0.184-0.635,0.228c-3.04,0.348-6.102,0.521-9.185,0.521h-9.12
		c-0.413,0-0.69-0.07-0.83-0.212c-0.143-0.141-0.212-0.407-0.212-0.798v-1.336c0-0.391,0.069-0.656,0.212-0.797
		C258.141,44.26,258.418,44.189,258.831,44.189 M258.146,28.033v-1.205c0-0.391,0.07-0.656,0.212-0.798
		c0.142-0.14,0.418-0.212,0.83-0.212h6.286v-1.954c0-0.695,0.315-1.042,0.945-1.042h2.085c0.629,0,0.944,0.347,0.944,1.042v1.954
		h6.091c0.412,0,0.688,0.072,0.831,0.212c0.14,0.142,0.212,0.407,0.212,0.798v1.205c0,0.391-0.072,0.657-0.212,0.798
		c-0.143,0.142-0.419,0.212-0.831,0.212h-16.352c-0.412,0-0.688-0.07-0.83-0.212C258.217,28.69,258.146,28.424,258.146,28.033
		 M263.554,35.558c0,0.738,0.31,1.363,0.928,1.873c0.619,0.509,1.406,0.764,2.361,0.764h1.303c0.912,0,1.688-0.26,2.329-0.781
		c0.642-0.52,0.961-1.14,0.961-1.856c0-0.782-0.319-1.439-0.961-1.971c-0.641-0.532-1.417-0.798-2.329-0.798h-1.303
		c-0.955,0-1.742,0.266-2.361,0.798C263.863,34.119,263.554,34.776,263.554,35.558 M287.07,33.831v1.531
		c0,0.391-0.07,0.658-0.212,0.798c-0.142,0.142-0.418,0.212-0.831,0.212h-2.964v12.442c0,0.694-0.314,1.042-0.943,1.042h-1.955
		c-0.629,0-0.944-0.348-0.944-1.042V24.613c0-0.695,0.315-1.042,0.944-1.042h1.955c0.629,0,0.943,0.347,0.943,1.042v8.241h2.964
		c0.413,0,0.689,0.071,0.831,0.211C287,33.207,287.07,33.462,287.07,33.831"/>
	<path clip-path="url(#SVGID_2_)" fill="#2C2C2B" d="M301.856,38.815l-1.595,0.553c-0.717,0.24-1.195-0.021-1.433-0.781
		l-2.737-9.088c-0.173-0.477-0.32-0.792-0.438-0.944c-0.12-0.153-0.245-0.147-0.375,0.015c-0.131,0.164-0.272,0.495-0.424,0.995
		l-2.801,9.608c-0.131,0.413-0.31,0.673-0.538,0.782c-0.228,0.108-0.592,0.097-1.091-0.033l-1.499-0.423
		c-0.369-0.109-0.586-0.282-0.651-0.521c-0.064-0.24-0.021-0.576,0.132-1.01l4.07-12.279c0.218-0.609,0.488-1.021,0.814-1.238
		c0.326-0.217,0.76-0.327,1.303-0.327h1.825c0.976,0,1.638,0.468,1.986,1.401l3.974,11.857
		C302.661,38.12,302.487,38.598,301.856,38.815 M314.463,51.941h-17.295c-1.955,0-2.932-0.913-2.932-2.736v-6.352
		c0-0.717,0.313-1.075,0.943-1.075h2.021c0.63,0,0.944,0.358,0.944,1.075v4.755c0,0.392,0.054,0.652,0.162,0.782
		c0.109,0.13,0.337,0.195,0.686,0.195h15.471c0.413,0,0.689,0.07,0.831,0.212c0.14,0.141,0.211,0.395,0.211,0.766v1.368
		c0,0.391-0.071,0.656-0.211,0.798C315.152,51.871,314.876,51.941,314.463,51.941 M307.851,43.635h-1.954
		c-0.63,0-0.944-0.347-0.944-1.042V32.399h-2.803c-0.411,0-0.688-0.072-0.829-0.212c-0.142-0.142-0.211-0.408-0.211-0.799v-1.433
		c0-0.39,0.069-0.656,0.211-0.798c0.141-0.141,0.418-0.212,0.829-0.212h2.803v-4.494c0-0.695,0.314-1.043,0.944-1.043h1.954
		c0.63,0,0.944,0.348,0.944,1.043v18.142C308.795,43.288,308.48,43.635,307.851,43.635 M314.235,43.798h-1.955
		c-0.63,0-0.944-0.347-0.944-1.042V24.288c0-0.695,0.314-1.043,0.944-1.043h1.955c0.63,0,0.943,0.348,0.943,1.043v18.468
		C315.179,43.451,314.865,43.798,314.235,43.798"/>
	<path clip-path="url(#SVGID_2_)" fill="#2C2C2B" d="M320.196,42.3V26.73c0-0.521,0.107-0.895,0.326-1.124
		c0.216-0.227,0.586-0.342,1.106-0.342h12.344c0.413,0,0.69,0.071,0.831,0.212c0.142,0.142,0.212,0.407,0.212,0.798v1.368
		c0,0.391-0.07,0.657-0.212,0.798c-0.141,0.142-0.418,0.212-0.831,0.212h-9.934v4.234h8.827c0.412,0,0.689,0.071,0.831,0.212
		c0.141,0.142,0.212,0.396,0.212,0.766v1.4c0,0.391-0.071,0.656-0.212,0.798c-0.142,0.142-0.419,0.212-0.831,0.212h-8.827v4.689
		c0,0.392,0.06,0.652,0.18,0.782c0.118,0.13,0.374,0.195,0.766,0.195h10.031c0.413,0,0.689,0.07,0.83,0.212
		c0.143,0.142,0.212,0.396,0.212,0.765v1.401c0,0.391-0.069,0.657-0.212,0.798c-0.141,0.142-0.417,0.212-0.83,0.212h-11.758
		c-1.151,0-1.95-0.266-2.395-0.799C320.418,43.999,320.196,43.256,320.196,42.3 M343.354,49.856H341.4
		c-0.631,0-0.944-0.348-0.944-1.042V35.882h-4.137c-0.413,0-0.69-0.07-0.831-0.211c-0.143-0.141-0.212-0.407-0.212-0.798v-1.531
		c0-0.369,0.069-0.624,0.212-0.765c0.141-0.141,0.418-0.212,0.831-0.212h4.137v-7.752c0-0.695,0.313-1.042,0.944-1.042h1.953
		c0.631,0,0.944,0.347,0.944,1.042v24.201C344.298,49.509,343.984,49.856,343.354,49.856"/>
</g>
<g>
	<defs>
		<path id="SVGID_3_" d="M12.347,38.799c0-14.586,11.865-26.45,26.45-26.45s26.449,11.864,26.449,26.45
			c0,14.584-11.864,26.448-26.449,26.448S12.347,53.383,12.347,38.799 M2.259,38.799c0,20.146,16.392,36.537,36.536,36.537
			c20.15,0,36.54-16.392,36.54-36.537c0-20.148-16.39-36.538-36.54-36.538C18.651,2.261,2.259,18.651,2.259,38.799"/>
	</defs>
	<clipPath id="SVGID_4_">
		<use xlink:href="#SVGID_3_"  overflow="visible"/>
	</clipPath>
	
		<linearGradient id="SVGID_5_" gradientUnits="userSpaceOnUse" x1="0" y1="77.5957" x2="1" y2="77.5957" gradientTransform="matrix(56.8305 45.1076 45.1076 -56.8305 -3490.0291 4425.8169)">
		<stop  offset="0" style="stop-color:#009FE3"/>
		<stop  offset="1" style="stop-color:#154194"/>
	</linearGradient>
	<polygon clip-path="url(#SVGID_4_)" fill="url(#SVGID_5_)" points="30.503,-33.323 110.918,30.504 47.091,110.92 -33.325,47.092 	
		"/>
</g>
<g>
	<defs>
		<path id="SVGID_6_" d="M1.206,38.799c0-20.728,16.864-37.591,37.592-37.591c20.729,0,37.59,16.863,37.59,37.591
			c0,20.729-16.861,37.59-37.59,37.59C18.07,76.389,1.206,59.527,1.206,38.799 M38.798,0C17.404,0,0,17.406,0,38.799
			c0,21.393,17.404,38.797,38.798,38.797c21.393,0,38.797-17.404,38.797-38.797C77.595,17.406,60.191,0,38.798,0z"/>
	</defs>
	<clipPath id="SVGID_7_">
		<use xlink:href="#SVGID_6_"  overflow="visible"/>
	</clipPath>
	
		<linearGradient id="SVGID_8_" gradientUnits="userSpaceOnUse" x1="0" y1="77.5957" x2="1" y2="77.5957" gradientTransform="matrix(-60.9931 -50.6296 -50.6296 60.9931 3997.5125 -4669.0615)">
		<stop  offset="0" style="stop-color:#AFCA0A"/>
		<stop  offset="1" style="stop-color:#009640"/>
	</linearGradient>
	<polygon clip-path="url(#SVGID_7_)" fill="url(#SVGID_8_)" points="45.94,115.73 -38.135,45.94 31.655,-38.135 115.73,31.655 	"/>
</g>
<g>
	<defs>
		<rect id="SVGID_9_" y="0" width="344.367" height="77.596"/>
	</defs>
	<clipPath id="SVGID_10_">
		<use xlink:href="#SVGID_9_"  overflow="visible"/>
	</clipPath>
	<path clip-path="url(#SVGID_10_)" fill="#FFFFFF" d="M8.834,43.555c0.437-0.098,0.852-0.011,1.244,0.264
		c0.393,0.273,0.644,0.704,0.752,1.292c0.092,0.497,0.038,0.936-0.163,1.314c-0.201,0.378-0.502,0.68-0.906,0.905
		c-0.112,0.073-0.206,0.104-0.284,0.089c-0.077-0.015-0.131-0.096-0.164-0.241l-0.105-0.457c-0.025-0.117-0.025-0.199,0-0.244
		c0.027-0.046,0.103-0.103,0.226-0.17c0.174-0.099,0.318-0.243,0.427-0.434c0.111-0.189,0.145-0.389,0.102-0.597
		c-0.056-0.298-0.173-0.496-0.349-0.595c-0.174-0.099-0.361-0.126-0.558-0.081c-0.221,0.05-0.383,0.161-0.487,0.336
		c-0.104,0.173-0.169,0.444-0.195,0.811c-0.017,0.295-0.043,0.541-0.077,0.739c-0.034,0.197-0.096,0.405-0.186,0.623
		c-0.088,0.218-0.221,0.395-0.397,0.529c-0.176,0.137-0.398,0.229-0.663,0.28c-0.439,0.084-0.83-0.001-1.171-0.258
		c-0.342-0.256-0.581-0.693-0.715-1.315c-0.102-0.471-0.053-0.894,0.146-1.266c0.2-0.374,0.481-0.641,0.845-0.802
		c0.067-0.029,0.127-0.051,0.181-0.063c0.054-0.013,0.101,0.002,0.142,0.043c0.042,0.039,0.074,0.108,0.095,0.207l0.09,0.395
		c0.026,0.118,0.026,0.203,0.001,0.256c-0.024,0.052-0.089,0.107-0.194,0.166c-0.159,0.085-0.282,0.206-0.369,0.364
		c-0.088,0.159-0.108,0.343-0.061,0.555c0.119,0.525,0.383,0.755,0.792,0.687c0.201-0.03,0.343-0.138,0.427-0.321
		c0.084-0.185,0.14-0.448,0.166-0.789c0.024-0.313,0.058-0.576,0.103-0.79c0.045-0.215,0.117-0.426,0.216-0.634
		c0.099-0.207,0.237-0.377,0.418-0.509C8.343,43.712,8.567,43.616,8.834,43.555"/>
	<path clip-path="url(#SVGID_10_)" fill="#FFFFFF" d="M9.642,39.308c0.11-0.009,0.189,0.007,0.235,0.047
		c0.047,0.04,0.076,0.122,0.086,0.247l0.196,2.469c0.022,0.288-0.024,0.492-0.14,0.612c-0.117,0.12-0.29,0.189-0.521,0.208
		l-4.412,0.35c-0.139,0.011-0.24-0.012-0.305-0.066c-0.065-0.056-0.104-0.156-0.116-0.306l-0.219-2.771
		c-0.01-0.125,0.005-0.21,0.045-0.257s0.115-0.075,0.225-0.083l0.288-0.023c0.11-0.009,0.189,0.007,0.236,0.046
		c0.047,0.04,0.074,0.122,0.085,0.247l0.169,2.153l1.232-0.098l-0.171-2.153c-0.01-0.124,0.004-0.21,0.041-0.256
		c0.037-0.047,0.114-0.074,0.229-0.084l0.28-0.022c0.116-0.009,0.196,0.007,0.239,0.046c0.045,0.041,0.072,0.123,0.081,0.248
		l0.171,2.152l1.547-0.123c0.049-0.004,0.08-0.013,0.093-0.028c0.013-0.017,0.018-0.05,0.013-0.103L9.083,39.67
		c-0.01-0.125,0.005-0.21,0.044-0.257c0.041-0.046,0.116-0.073,0.226-0.083L9.642,39.308z"/>
	<path clip-path="url(#SVGID_10_)" fill="#FFFFFF" d="M7.416,34.771C8.31,34.825,9,35.042,9.489,35.423
		c0.487,0.38,0.711,0.897,0.67,1.55c-0.041,0.668-0.325,1.156-0.85,1.467c-0.526,0.31-1.24,0.437-2.144,0.381
		c-0.902-0.056-1.6-0.272-2.089-0.648C4.583,37.799,4.359,37.28,4.4,36.616c0.041-0.662,0.328-1.15,0.861-1.462
		C5.793,34.842,6.513,34.714,7.416,34.771 M7.352,35.801c-0.572-0.036-1.053,0.016-1.444,0.153c-0.393,0.137-0.599,0.376-0.62,0.717
		c-0.016,0.24,0.071,0.444,0.259,0.609c0.187,0.166,0.42,0.287,0.701,0.363c0.279,0.075,0.606,0.124,0.981,0.147
		c0.581,0.035,1.061-0.012,1.437-0.146c0.379-0.133,0.578-0.375,0.599-0.726c0.015-0.236-0.069-0.436-0.252-0.601
		C8.831,36.151,8.6,36.029,8.32,35.951C8.04,35.873,7.717,35.823,7.352,35.801"/>
	<path clip-path="url(#SVGID_10_)" fill="#FFFFFF" d="M10.183,33.474c0.202,0.043,0.283,0.161,0.242,0.354l-0.091,0.424
		c-0.041,0.193-0.162,0.269-0.365,0.225l-4.88-1.039c-0.202-0.043-0.283-0.161-0.241-0.355l0.089-0.423
		c0.041-0.193,0.163-0.269,0.366-0.226l1.757,0.375l0.334-1.567l-1.757-0.375c-0.203-0.043-0.283-0.161-0.243-0.355l0.091-0.423
		c0.041-0.193,0.163-0.268,0.365-0.225l4.881,1.039c0.202,0.043,0.282,0.161,0.241,0.354l-0.09,0.424
		c-0.04,0.193-0.163,0.268-0.365,0.225l-2.26-0.482l-0.334,1.568L10.183,33.474z"/>
	<path clip-path="url(#SVGID_10_)" fill="#FFFFFF" d="M12.119,26.98c0.104,0.039,0.169,0.086,0.194,0.142
		c0.026,0.055,0.017,0.142-0.027,0.259l-0.861,2.323c-0.1,0.271-0.228,0.436-0.384,0.497c-0.155,0.06-0.342,0.049-0.559-0.031
		l-4.15-1.538c-0.131-0.048-0.214-0.112-0.249-0.189c-0.036-0.076-0.028-0.186,0.024-0.326l0.966-2.607
		c0.043-0.118,0.092-0.189,0.148-0.214c0.056-0.026,0.136-0.019,0.239,0.019l0.272,0.101c0.103,0.038,0.168,0.085,0.194,0.141
		c0.025,0.055,0.016,0.142-0.027,0.26L7.148,27.84l1.158,0.43l0.75-2.024c0.045-0.118,0.093-0.19,0.146-0.217
		c0.053-0.026,0.134-0.019,0.243,0.021l0.264,0.099c0.108,0.04,0.174,0.087,0.197,0.142c0.024,0.055,0.013,0.141-0.031,0.257
		l-0.75,2.026l1.456,0.54c0.046,0.016,0.078,0.021,0.096,0.012c0.018-0.008,0.037-0.038,0.055-0.087l0.728-1.964
		c0.044-0.117,0.094-0.189,0.15-0.214c0.055-0.027,0.135-0.019,0.239,0.019L12.119,26.98z"/>
	<path clip-path="url(#SVGID_10_)" fill="#FFFFFF" d="M14.002,23.421c0.098,0.052,0.155,0.107,0.173,0.167
		c0.017,0.059-0.004,0.143-0.063,0.253l-1.174,2.181c-0.138,0.254-0.287,0.401-0.45,0.439s-0.346,0.002-0.549-0.107l-3.898-2.099
		c-0.123-0.066-0.196-0.141-0.221-0.222c-0.025-0.082-0.001-0.188,0.07-0.318l1.318-2.449c0.059-0.111,0.118-0.174,0.176-0.192
		c0.059-0.017,0.138,0,0.235,0.052l0.255,0.137c0.097,0.054,0.154,0.109,0.172,0.167s-0.003,0.143-0.063,0.254L8.96,23.585
		l1.086,0.586l1.025-1.901c0.059-0.111,0.118-0.175,0.174-0.195c0.056-0.018,0.135,0,0.237,0.055l0.248,0.133
		c0.103,0.054,0.161,0.111,0.176,0.169c0.015,0.057-0.006,0.14-0.066,0.252l-1.024,1.9l1.367,0.737
		c0.043,0.023,0.074,0.031,0.093,0.025c0.019-0.005,0.042-0.032,0.068-0.079l0.992-1.843c0.06-0.11,0.12-0.175,0.178-0.192
		c0.058-0.017,0.136,0,0.234,0.051L14.002,23.421z"/>
	<path clip-path="url(#SVGID_10_)" fill="#FFFFFF" d="M15.441,19.001l1.173,0.961c0.16,0.132,0.178,0.273,0.053,0.426l-0.284,0.346
		c-0.125,0.153-0.268,0.163-0.427,0.033l-1.174-0.962l-3.572-0.939c-0.143-0.023-0.231-0.067-0.265-0.133
		c-0.033-0.064,0.004-0.164,0.114-0.298l0.283-0.346c0.071-0.086,0.132-0.136,0.184-0.149c0.051-0.014,0.128-0.007,0.23,0.021
		l2.513,0.762l-1.238-2.295c-0.05-0.091-0.074-0.166-0.071-0.227c0.002-0.059,0.04-0.134,0.114-0.224l0.292-0.357
		c0.104-0.127,0.191-0.18,0.261-0.16c0.071,0.021,0.131,0.096,0.181,0.224L15.441,19.001z"/>
	<path clip-path="url(#SVGID_10_)" fill="#FFFFFF" d="M18.9,14.19c0.607,0.658,0.954,1.294,1.043,1.906
		c0.089,0.611-0.107,1.139-0.588,1.582c-0.493,0.453-1.036,0.609-1.63,0.47c-0.593-0.141-1.197-0.543-1.81-1.209
		c-0.613-0.666-0.967-1.304-1.061-1.915c-0.095-0.61,0.103-1.14,0.592-1.59c0.489-0.45,1.033-0.604,1.633-0.46
		C17.682,13.12,18.288,13.523,18.9,14.19 M18.141,14.89c-0.388-0.421-0.77-0.719-1.149-0.891c-0.377-0.173-0.692-0.142-0.944,0.088
		c-0.177,0.164-0.255,0.37-0.235,0.619c0.021,0.25,0.106,0.499,0.256,0.747c0.15,0.248,0.352,0.51,0.606,0.788
		c0.396,0.427,0.775,0.724,1.14,0.889c0.364,0.165,0.676,0.129,0.934-0.11c0.174-0.159,0.252-0.362,0.235-0.609
		c-0.017-0.245-0.1-0.493-0.249-0.743C18.587,15.418,18.39,15.16,18.141,14.89"/>
	<path clip-path="url(#SVGID_10_)" fill="#FFFFFF" d="M23.014,12.309c0.384,0.566,0.543,1.082,0.476,1.55
		c-0.066,0.467-0.338,0.862-0.816,1.187c-0.478,0.325-0.947,0.432-1.406,0.323c-0.459-0.111-0.881-0.449-1.265-1.013l-1.838-2.706
		c-0.117-0.171-0.093-0.313,0.07-0.424l0.358-0.242c0.164-0.112,0.303-0.082,0.419,0.089l1.831,2.693
		c0.447,0.657,0.889,0.838,1.327,0.54c0.438-0.299,0.434-0.775-0.013-1.433l-1.831-2.693c-0.116-0.171-0.092-0.311,0.071-0.424
		l0.359-0.243c0.163-0.11,0.302-0.081,0.419,0.091L23.014,12.309z"/>
	<path clip-path="url(#SVGID_10_)" fill="#FFFFFF" d="M26.494,12.423c0.091,0.186,0.047,0.322-0.13,0.409l-0.403,0.195
		c-0.177,0.086-0.311,0.037-0.402-0.15l-1.917-3.941l-1.006,0.489c-0.114,0.055-0.199,0.072-0.257,0.052
		c-0.058-0.02-0.111-0.079-0.159-0.179l-0.127-0.26c-0.048-0.099-0.062-0.178-0.042-0.236c0.019-0.058,0.086-0.114,0.198-0.169
		l3.046-1.481c0.113-0.056,0.199-0.073,0.256-0.053c0.058,0.02,0.111,0.08,0.16,0.179l0.126,0.259
		c0.048,0.102,0.063,0.18,0.042,0.238c-0.019,0.057-0.086,0.114-0.198,0.168l-1.104,0.538L26.494,12.423z"/>
	<path clip-path="url(#SVGID_10_)" fill="#FFFFFF" d="M29.216,11.309c0.062,0.197,0,0.326-0.188,0.386l-0.414,0.131
		c-0.188,0.059-0.313-0.01-0.376-0.207l-1.507-4.757c-0.062-0.198,0-0.326,0.189-0.386l0.412-0.13
		c0.188-0.06,0.314,0.008,0.376,0.206l0.544,1.714l1.528-0.484l-0.544-1.714c-0.063-0.197,0.001-0.326,0.189-0.386l0.414-0.131
		c0.188-0.059,0.313,0.01,0.376,0.207l1.507,4.756c0.062,0.198-0.001,0.326-0.189,0.386l-0.412,0.132
		c-0.189,0.059-0.314-0.01-0.377-0.207l-0.698-2.203l-1.528,0.484L29.216,11.309z"/>
	<path clip-path="url(#SVGID_10_)" fill="#FFFFFF" d="M37.58,8.358c-0.04,0.493-0.215,0.919-0.527,1.277
		c-0.314,0.357-0.729,0.565-1.245,0.619c-0.685,0.074-1.254-0.116-1.706-0.568c-0.453-0.452-0.729-1.143-0.829-2.072
		c-0.1-0.934,0.007-1.663,0.321-2.189c0.315-0.524,0.814-0.824,1.498-0.897c0.531-0.057,0.989,0.05,1.375,0.321
		c0.385,0.272,0.622,0.639,0.71,1.105c0.023,0.123,0.017,0.212-0.018,0.266c-0.036,0.055-0.114,0.089-0.233,0.102l-0.402,0.043
		c-0.105,0.012-0.182,0-0.229-0.037c-0.048-0.036-0.094-0.112-0.141-0.228c-0.094-0.238-0.227-0.418-0.403-0.542
		c-0.176-0.125-0.369-0.173-0.579-0.145c-0.381,0.056-0.636,0.273-0.765,0.652s-0.162,0.858-0.1,1.439
		c0.061,0.564,0.213,1.026,0.457,1.384c0.244,0.36,0.561,0.518,0.948,0.477c0.225-0.025,0.407-0.134,0.546-0.328
		c0.139-0.194,0.221-0.396,0.247-0.608c0.014-0.141,0.039-0.234,0.076-0.276s0.113-0.07,0.228-0.083l0.452-0.048
		c0.138-0.016,0.229,0.004,0.271,0.059C37.574,8.133,37.59,8.226,37.58,8.358"/>
	<path clip-path="url(#SVGID_10_)" fill="#FFFFFF" d="M41.82,8.129c-0.027,0.683-0.206,1.193-0.538,1.528
		c-0.331,0.337-0.785,0.494-1.362,0.47c-0.577-0.022-1.017-0.214-1.322-0.575c-0.304-0.362-0.442-0.883-0.415-1.567l0.129-3.269
		c0.009-0.207,0.111-0.307,0.309-0.298l0.432,0.017c0.198,0.007,0.292,0.115,0.284,0.322l-0.128,3.254
		c-0.032,0.794,0.217,1.201,0.747,1.222c0.528,0.021,0.808-0.366,0.84-1.16l0.129-3.254c0.008-0.207,0.11-0.306,0.308-0.298
		l0.433,0.017c0.197,0.008,0.292,0.115,0.283,0.321L41.82,8.129z"/>
	<path clip-path="url(#SVGID_10_)" fill="#FFFFFF" d="M45.708,10.473c-0.02,0.109-0.055,0.182-0.105,0.215
		c-0.05,0.035-0.138,0.042-0.261,0.019l-2.28-0.412c-0.285-0.052-0.47-0.149-0.558-0.292c-0.086-0.143-0.108-0.329-0.067-0.555
		l0.809-4.47c0.037-0.204,0.152-0.288,0.346-0.253l0.434,0.078c0.195,0.035,0.273,0.155,0.236,0.359l-0.758,4.185
		c-0.008,0.047-0.007,0.08,0.005,0.097c0.012,0.016,0.044,0.03,0.096,0.039l1.897,0.344c0.123,0.021,0.203,0.058,0.238,0.108
		c0.033,0.051,0.042,0.13,0.022,0.239L45.708,10.473z"/>
	<path clip-path="url(#SVGID_10_)" fill="#FFFFFF" d="M47.725,11.119c-0.06,0.197-0.185,0.269-0.374,0.21l-0.428-0.131
		c-0.188-0.058-0.253-0.185-0.192-0.384l1.282-4.191l-1.07-0.328c-0.119-0.036-0.193-0.082-0.223-0.136
		c-0.029-0.055-0.027-0.135,0.006-0.24l0.084-0.277c0.033-0.105,0.076-0.172,0.13-0.201c0.055-0.029,0.141-0.025,0.261,0.012
		l3.239,0.991c0.12,0.036,0.194,0.081,0.222,0.136c0.029,0.054,0.027,0.134-0.005,0.24l-0.084,0.276
		c-0.033,0.106-0.077,0.173-0.131,0.203c-0.053,0.027-0.14,0.024-0.261-0.013l-1.173-0.359L47.725,11.119z"/>
	<path clip-path="url(#SVGID_10_)" fill="#FFFFFF" d="M53.571,11.765c-0.294,0.618-0.659,1.018-1.095,1.196
		c-0.437,0.179-0.916,0.145-1.438-0.103s-0.852-0.597-0.989-1.049c-0.138-0.451-0.059-0.986,0.233-1.604l1.403-2.956
		c0.089-0.186,0.222-0.238,0.4-0.153l0.392,0.187c0.179,0.084,0.223,0.219,0.135,0.406l-1.397,2.943
		c-0.341,0.718-0.272,1.19,0.207,1.417c0.478,0.227,0.887-0.018,1.229-0.736l1.396-2.944c0.088-0.186,0.223-0.237,0.4-0.153
		l0.392,0.187c0.178,0.085,0.223,0.22,0.134,0.408L53.571,11.765z"/>
	<path clip-path="url(#SVGID_10_)" fill="#FFFFFF" d="M58.488,12.686c-0.362,0.54-0.835,0.817-1.418,0.833l-0.541,2.132
		c-0.03,0.13-0.078,0.205-0.145,0.224c-0.068,0.019-0.162-0.014-0.282-0.094l-0.294-0.197c-0.1-0.066-0.161-0.129-0.183-0.186
		c-0.021-0.059-0.016-0.152,0.018-0.28l0.482-1.824c-0.154-0.074-0.288-0.149-0.405-0.226l-0.527-0.354l-0.964,1.44
		c-0.116,0.172-0.256,0.203-0.419,0.093l-0.36-0.241c-0.165-0.109-0.189-0.251-0.074-0.422l2.675-3.998
		c0.094-0.14,0.192-0.217,0.293-0.229c0.102-0.013,0.228,0.032,0.381,0.132l1.014,0.679c0.492,0.33,0.818,0.714,0.979,1.154
		C58.878,11.764,58.801,12.217,58.488,12.686 M56.53,10.715l-0.852,1.273l0.438,0.292c0.649,0.435,1.153,0.383,1.511-0.153
		c0.166-0.248,0.198-0.478,0.097-0.69c-0.1-0.213-0.307-0.424-0.619-0.633L56.86,10.64c-0.089-0.059-0.151-0.084-0.187-0.073
		C56.637,10.577,56.589,10.627,56.53,10.715"/>
	<path clip-path="url(#SVGID_10_)" fill="#FFFFFF" d="M60.276,18.984c-0.07,0.132-0.138,0.206-0.206,0.222
		c-0.068,0.016-0.151-0.022-0.25-0.113l-0.307-0.284c-0.095-0.089-0.15-0.163-0.164-0.221c-0.014-0.059,0.01-0.151,0.073-0.277
		l0.607-1.23l-1.298-1.201l-1.154,0.683c-0.077,0.048-0.137,0.079-0.181,0.094s-0.095,0.014-0.153-0.004
		c-0.059-0.019-0.124-0.061-0.194-0.125l-0.281-0.26c-0.121-0.112-0.171-0.206-0.151-0.283c0.018-0.078,0.088-0.146,0.209-0.205
		l4.301-2.435c0.173-0.096,0.324-0.133,0.452-0.112c0.13,0.02,0.254,0.087,0.374,0.197l0.28,0.261
		c0.132,0.12,0.21,0.238,0.237,0.351c0.026,0.113-0.005,0.263-0.093,0.45L60.276,18.984z M61.109,14.47l-1.593,0.945l0.922,0.854
		l0.829-1.683c0.044-0.09,0.054-0.146,0.028-0.17C61.271,14.393,61.209,14.411,61.109,14.47"/>
	<path clip-path="url(#SVGID_10_)" fill="#FFFFFF" d="M62.563,21.969c-0.086,0.069-0.161,0.101-0.222,0.094
		c-0.061-0.006-0.13-0.059-0.208-0.158l-1.449-1.808c-0.182-0.226-0.258-0.42-0.229-0.585c0.028-0.165,0.132-0.32,0.314-0.464
		l3.543-2.841c0.163-0.129,0.305-0.117,0.428,0.038l0.276,0.344c0.123,0.153,0.104,0.295-0.057,0.425l-3.32,2.659
		c-0.037,0.03-0.057,0.056-0.059,0.076s0.013,0.051,0.046,0.092l1.206,1.505c0.078,0.098,0.114,0.178,0.107,0.238
		c-0.007,0.061-0.053,0.126-0.14,0.196L62.563,21.969z"/>
	<path clip-path="url(#SVGID_10_)" fill="#FFFFFF" d="M66.459,26.14c-0.471,0.151-0.931,0.151-1.381-0.002
		c-0.451-0.152-0.799-0.457-1.047-0.914c-0.329-0.605-0.37-1.204-0.125-1.794c0.246-0.592,0.78-1.109,1.601-1.556
		c0.824-0.447,1.54-0.627,2.145-0.536c0.605,0.09,1.072,0.439,1.401,1.043c0.255,0.47,0.33,0.935,0.226,1.394
		s-0.354,0.818-0.75,1.077c-0.105,0.068-0.19,0.096-0.255,0.084c-0.063-0.012-0.124-0.07-0.181-0.176l-0.194-0.355
		c-0.049-0.094-0.068-0.169-0.052-0.227c0.015-0.057,0.067-0.129,0.157-0.217c0.184-0.176,0.3-0.37,0.348-0.578
		c0.047-0.21,0.019-0.406-0.087-0.591c-0.196-0.332-0.495-0.484-0.894-0.459c-0.4,0.026-0.855,0.178-1.368,0.455
		c-0.499,0.271-0.868,0.587-1.107,0.951c-0.238,0.362-0.265,0.714-0.079,1.057c0.108,0.199,0.279,0.325,0.511,0.38
		c0.232,0.055,0.451,0.054,0.656-0.003c0.136-0.041,0.231-0.053,0.284-0.034c0.054,0.018,0.108,0.076,0.163,0.178l0.217,0.4
		c0.067,0.122,0.083,0.214,0.05,0.273C66.665,26.049,66.585,26.099,66.459,26.14"/>
	<path clip-path="url(#SVGID_10_)" fill="#FFFFFF" d="M66.697,30.479c-0.104,0.038-0.184,0.045-0.239,0.019
		c-0.055-0.026-0.105-0.097-0.148-0.215l-0.848-2.327c-0.1-0.271-0.11-0.48-0.031-0.627c0.08-0.148,0.228-0.26,0.446-0.339
		l4.158-1.519c0.131-0.048,0.236-0.054,0.313-0.018c0.076,0.036,0.141,0.124,0.191,0.263l0.955,2.613
		c0.042,0.117,0.051,0.204,0.025,0.259c-0.025,0.056-0.091,0.102-0.195,0.141l-0.271,0.099c-0.104,0.038-0.184,0.044-0.239,0.018
		c-0.055-0.026-0.105-0.098-0.148-0.216l-0.74-2.027l-1.16,0.423l0.741,2.028c0.042,0.117,0.052,0.204,0.028,0.259
		c-0.024,0.055-0.09,0.103-0.198,0.142l-0.264,0.096c-0.11,0.039-0.19,0.046-0.243,0.02c-0.053-0.026-0.102-0.1-0.145-0.217
		l-0.74-2.028l-1.459,0.532c-0.045,0.017-0.072,0.034-0.08,0.053c-0.009,0.018-0.004,0.052,0.014,0.102l0.718,1.968
		c0.043,0.118,0.052,0.204,0.026,0.26c-0.026,0.054-0.091,0.101-0.195,0.14L66.697,30.479z"/>
	<path clip-path="url(#SVGID_10_)" fill="#FFFFFF" d="M72.471,33.82l-4.795,0.988c-0.108,0.023-0.202,0.014-0.279-0.027
		c-0.076-0.041-0.125-0.107-0.145-0.202l-0.042-0.205c-0.034-0.165,0.015-0.31,0.146-0.436l2.748-2.661l-3.084,0.637
		c-0.202,0.042-0.324-0.035-0.364-0.228L66.57,31.27c-0.04-0.193,0.042-0.311,0.245-0.353l4.837-0.998
		c0.212-0.043,0.339,0.036,0.381,0.239l0.05,0.24c0.024,0.118,0.027,0.203,0.009,0.257c-0.019,0.053-0.072,0.12-0.158,0.202
		l-2.83,2.618l3.162-0.651c0.202-0.042,0.324,0.033,0.364,0.227l0.085,0.417C72.756,33.661,72.674,33.778,72.471,33.82"/>
	<path clip-path="url(#SVGID_10_)" fill="#FFFFFF" d="M67.799,37.665c-0.206,0.012-0.315-0.082-0.326-0.278l-0.023-0.448
		c-0.011-0.197,0.087-0.301,0.294-0.312l4.378-0.233l-0.06-1.118c-0.007-0.124,0.01-0.21,0.052-0.256
		c0.04-0.044,0.116-0.071,0.227-0.077l0.288-0.014c0.111-0.006,0.189,0.011,0.235,0.052c0.045,0.041,0.071,0.124,0.078,0.249
		l0.179,3.382c0.007,0.125-0.01,0.211-0.051,0.256c-0.041,0.046-0.117,0.071-0.227,0.077l-0.29,0.016
		c-0.109,0.006-0.188-0.012-0.233-0.053s-0.072-0.124-0.078-0.249l-0.065-1.226L67.799,37.665z"/>
	<path clip-path="url(#SVGID_10_)" fill="#FFFFFF" d="M67.568,43.135c-0.11-0.01-0.186-0.038-0.225-0.085
		c-0.04-0.047-0.053-0.133-0.043-0.258l0.217-2.468c0.026-0.287,0.106-0.48,0.24-0.58c0.134-0.1,0.316-0.138,0.547-0.118l4.41,0.388
		c0.139,0.013,0.236,0.052,0.29,0.116c0.055,0.065,0.075,0.173,0.063,0.321l-0.244,2.77c-0.011,0.125-0.04,0.206-0.087,0.246
		c-0.047,0.039-0.126,0.055-0.236,0.045l-0.288-0.025c-0.11-0.011-0.185-0.039-0.224-0.085c-0.04-0.047-0.054-0.133-0.043-0.258
		l0.189-2.15l-1.23-0.109l-0.189,2.151c-0.011,0.125-0.039,0.207-0.084,0.245c-0.043,0.04-0.124,0.056-0.239,0.046l-0.28-0.024
		c-0.115-0.011-0.192-0.039-0.228-0.086c-0.037-0.047-0.05-0.133-0.039-0.258l0.189-2.15l-1.546-0.137
		c-0.048-0.004-0.08,0.001-0.095,0.014c-0.016,0.013-0.027,0.046-0.032,0.1l-0.183,2.085c-0.011,0.126-0.04,0.208-0.087,0.246
		c-0.046,0.039-0.126,0.055-0.236,0.045L67.568,43.135z"/>
	<path clip-path="url(#SVGID_10_)" fill="#FFFFFF" d="M70.118,48.07c-0.633-0.147-1.06-0.492-1.28-1.032l-2.186,0.247
		c-0.133,0.018-0.219-0.001-0.26-0.059c-0.042-0.057-0.046-0.154-0.013-0.296l0.08-0.344c0.028-0.117,0.064-0.196,0.111-0.237
		c0.047-0.042,0.137-0.068,0.268-0.083l1.876-0.191c0.016-0.17,0.038-0.323,0.07-0.459l0.145-0.619l-1.689-0.394
		c-0.2-0.047-0.279-0.166-0.235-0.358l0.099-0.423c0.045-0.191,0.169-0.264,0.371-0.217l4.683,1.093
		c0.164,0.038,0.271,0.103,0.318,0.192c0.048,0.09,0.051,0.225,0.009,0.403l-0.276,1.188c-0.135,0.576-0.38,1.017-0.736,1.323
		C71.118,48.11,70.666,48.199,70.118,48.07 M71.27,45.544l-1.49-0.348l-0.121,0.514c-0.176,0.759,0.049,1.212,0.677,1.359
		c0.291,0.067,0.518,0.017,0.682-0.152c0.162-0.171,0.287-0.438,0.373-0.804l0.066-0.288c0.025-0.103,0.025-0.17,0.002-0.199
		C71.437,45.596,71.374,45.568,71.27,45.544"/>
	<path clip-path="url(#SVGID_10_)" fill="#FFFFFF" d="M16.987,58.461l-1.824,2.947c-0.06,0.108-0.127,0.184-0.201,0.22
		c-0.074,0.038-0.165,0.025-0.272-0.038l-0.255-0.157c-0.129-0.08-0.198-0.157-0.207-0.231c-0.01-0.075,0.021-0.171,0.095-0.287
		l1.674-2.652c0.028-0.045,0.043-0.079,0.043-0.105c0.002-0.025-0.012-0.038-0.039-0.038c-0.028,0.001-0.068,0.016-0.12,0.046
		l-2.804,1.449c-0.132,0.064-0.234,0.088-0.308,0.068c-0.073-0.021-0.144-0.097-0.213-0.232l-0.133-0.268
		c-0.056-0.109-0.065-0.198-0.026-0.268c0.038-0.069,0.117-0.131,0.235-0.184l3.158-1.568c0.314-0.157,0.573-0.125,0.776,0.097
		l0.402,0.44c0.098,0.107,0.151,0.22,0.162,0.334C17.138,58.148,17.091,58.291,16.987,58.461 M15.472,63.583
		c-0.151,0.139-0.292,0.137-0.421-0.005l-0.273-0.298c-0.129-0.142-0.118-0.281,0.033-0.42l2.093-1.912l-0.577-0.632
		c-0.086-0.095-0.128-0.173-0.124-0.23c0.005-0.06,0.049-0.128,0.133-0.205l0.227-0.208c0.088-0.08,0.162-0.119,0.221-0.118
		c0.061,0.001,0.134,0.048,0.22,0.143l0.576,0.632l0.931-0.851c0.151-0.139,0.292-0.137,0.421,0.005l0.273,0.299
		c0.129,0.141,0.118,0.279-0.034,0.42L15.472,63.583z"/>
	<path clip-path="url(#SVGID_10_)" fill="#FFFFFF" d="M20.532,66.711c-0.055,0.077-0.11,0.12-0.164,0.129
		c-0.055,0.009-0.121-0.009-0.201-0.055c-0.492-0.271-1.026-0.612-1.604-1.028l-1.485-1.067c-0.103-0.075-0.159-0.142-0.168-0.2
		c-0.008-0.06,0.022-0.136,0.088-0.229l0.144-0.199c0.066-0.094,0.13-0.145,0.188-0.155c0.059-0.012,0.141,0.021,0.244,0.095
		l1.501,1.079c0.507,0.366,1.026,0.696,1.554,0.992c0.095,0.058,0.151,0.109,0.169,0.159c0.017,0.049-0.003,0.114-0.061,0.195
		L20.532,66.711z M21.3,64.8c-0.178,0.247-0.447,0.394-0.804,0.438c-0.358,0.043-0.714-0.062-1.07-0.318l-0.35-0.252
		c-0.366-0.263-0.585-0.569-0.656-0.919c-0.069-0.348-0.013-0.647,0.167-0.899c0.201-0.278,0.476-0.44,0.827-0.485
		c0.351-0.046,0.71,0.063,1.081,0.331l0.35,0.252c0.356,0.256,0.57,0.561,0.64,0.915C21.556,64.216,21.495,64.529,21.3,64.8
		 M20.526,64.234c0.083-0.115,0.113-0.246,0.093-0.394c-0.021-0.146-0.098-0.268-0.231-0.364l-0.251-0.18
		c-0.14-0.102-0.283-0.137-0.428-0.109c-0.144,0.029-0.257,0.101-0.339,0.216c-0.078,0.106-0.105,0.231-0.084,0.373
		c0.022,0.142,0.103,0.265,0.244,0.365l0.25,0.18c0.133,0.097,0.271,0.133,0.414,0.109C20.338,64.407,20.449,64.341,20.526,64.234
		 M22.481,63.532c-0.067,0.093-0.129,0.144-0.188,0.156c-0.058,0.011-0.138-0.02-0.238-0.092l-2.613-1.878
		c-0.099-0.072-0.153-0.138-0.161-0.197c-0.009-0.06,0.021-0.137,0.088-0.228l0.108-0.15c0.068-0.097,0.132-0.15,0.189-0.163
		c0.057-0.014,0.137,0.019,0.24,0.093l0.923,0.664L21,61.498c0.126-0.175,0.269-0.204,0.429-0.089l0.327,0.235
		c0.155,0.112,0.171,0.255,0.046,0.429l-0.173,0.24l0.89,0.639c0.1,0.072,0.154,0.138,0.162,0.197
		c0.008,0.059-0.023,0.137-0.092,0.233L22.481,63.532z M21.14,67.906c-0.12,0.167-0.258,0.194-0.413,0.082l-0.328-0.236
		c-0.16-0.115-0.179-0.256-0.059-0.422l2.926-4.069c0.12-0.167,0.259-0.191,0.419-0.076l0.328,0.235
		c0.155,0.111,0.173,0.251,0.053,0.418L21.14,67.906z"/>
	<path clip-path="url(#SVGID_10_)" fill="#FFFFFF" d="M27.544,66.229c-0.043,0.095-0.088,0.157-0.135,0.187
		c0.045,0.01,0.086,0.023,0.124,0.04l0.683,0.302l0.398-0.902c0.082-0.188,0.211-0.244,0.387-0.166l0.376,0.166
		c0.175,0.078,0.221,0.21,0.139,0.397l-1.166,2.644c-0.085,0.192-0.215,0.25-0.391,0.173l-0.375-0.168
		c-0.176-0.076-0.221-0.211-0.136-0.403l0.411-0.933l-0.683-0.302c-0.112-0.049-0.178-0.103-0.199-0.158
		c-0.02-0.057-0.007-0.137,0.039-0.241l0.113-0.257c0.044-0.1,0.089-0.16,0.133-0.182c-0.023-0.005-0.064-0.02-0.122-0.046
		l-0.407-0.18l-0.003,1.533c0.008,0.139-0.009,0.238-0.053,0.298c-0.044,0.061-0.135,0.088-0.272,0.083l-0.28-0.012
		c-0.141-0.008-0.234-0.039-0.28-0.094c-0.045-0.055-0.068-0.152-0.065-0.291l0.019-1.691c0-0.088-0.014-0.14-0.041-0.151
		c-0.028-0.012-0.077,0.013-0.149,0.076l-1.398,1.284c-0.106,0.094-0.194,0.14-0.265,0.142c-0.07,0.002-0.154-0.05-0.253-0.152
		l-0.212-0.236c-0.073-0.082-0.103-0.155-0.09-0.22c0.013-0.063,0.075-0.144,0.182-0.242l1.281-1.155l-0.432-0.189
		c-0.118-0.053-0.185-0.106-0.206-0.162c-0.02-0.057-0.008-0.137,0.039-0.243l0.102-0.229c0.048-0.109,0.1-0.175,0.154-0.198
		c0.056-0.022,0.142-0.009,0.259,0.043l0.921,0.406l0.143-0.325c0.087-0.196,0.219-0.255,0.399-0.176l0.37,0.163
		c0.175,0.076,0.22,0.213,0.134,0.41l-0.144,0.324l0.895,0.396c0.112,0.05,0.18,0.102,0.2,0.159
		c0.019,0.056,0.006,0.139-0.042,0.247L27.544,66.229z M27.656,70.536c-0.151,0.343-0.434,0.564-0.847,0.667
		c-0.414,0.102-0.897,0.03-1.448-0.213l-0.495-0.218c-0.572-0.253-0.955-0.563-1.15-0.931c-0.195-0.368-0.215-0.725-0.063-1.071
		c0.165-0.372,0.445-0.608,0.842-0.711c0.396-0.102,0.885-0.024,1.465,0.232l0.495,0.218c0.559,0.247,0.94,0.555,1.142,0.923
		C27.799,69.801,27.818,70.169,27.656,70.536 M26.757,70.132c0.067-0.153,0.045-0.313-0.068-0.472
		c-0.115-0.16-0.318-0.305-0.611-0.434l-0.394-0.173c-0.3-0.134-0.546-0.188-0.736-0.165c-0.189,0.023-0.32,0.115-0.39,0.274
		c-0.066,0.149-0.044,0.302,0.067,0.459c0.111,0.155,0.316,0.3,0.617,0.434l0.395,0.173c0.291,0.129,0.536,0.182,0.73,0.159
		C26.563,70.363,26.693,70.277,26.757,70.132"/>
	<path clip-path="url(#SVGID_10_)" fill="#FFFFFF" d="M34.42,72.256c-0.023,0.112-0.06,0.185-0.109,0.219
		c-0.049,0.033-0.134,0.038-0.255,0.012l-4.706-1.001c-0.126-0.026-0.204-0.065-0.235-0.116c-0.032-0.051-0.035-0.133-0.012-0.244
		l0.06-0.281c0.025-0.111,0.06-0.185,0.11-0.219c0.048-0.033,0.135-0.037,0.261-0.011l1.848,0.395l0.284-1.333
		c0.044-0.206,0.162-0.287,0.353-0.248l0.429,0.092c0.187,0.04,0.259,0.162,0.216,0.368L32.38,71.22l1.862,0.396
		c0.12,0.027,0.196,0.064,0.226,0.115c0.032,0.051,0.036,0.133,0.012,0.244L34.42,72.256z M34.694,69.886
		c0.052,0.127,0.065,0.218,0.04,0.271s-0.1,0.108-0.224,0.166l-0.272,0.124c-0.211,0.096-0.373,0.02-0.482-0.229l-0.955-2.1
		c-0.072-0.16-0.147-0.248-0.219-0.264c-0.074-0.016-0.178,0.034-0.309,0.151l-1.756,1.544c-0.098,0.086-0.181,0.13-0.249,0.13
		c-0.068-0.001-0.144-0.048-0.232-0.141l-0.218-0.229c-0.091-0.095-0.137-0.171-0.136-0.229c0-0.058,0.054-0.139,0.159-0.242
		l1.938-1.736c0.15-0.137,0.281-0.222,0.391-0.257c0.109-0.034,0.236-0.036,0.379-0.006l0.482,0.102
		c0.147,0.031,0.259,0.082,0.335,0.152c0.077,0.07,0.159,0.203,0.248,0.399L34.694,69.886z"/>
	<path clip-path="url(#SVGID_10_)" fill="#FFFFFF" d="M39.294,70.468l-0.004,0.241c-0.002,0.108-0.025,0.185-0.066,0.228
		c-0.042,0.042-0.124,0.063-0.247,0.061l-2.205-0.044c-0.274-0.005-0.462-0.07-0.565-0.194c-0.103-0.126-0.151-0.305-0.147-0.538
		l0.047-2.39c0.004-0.209,0.102-0.312,0.294-0.308l0.417,0.009c0.196,0.003,0.292,0.109,0.289,0.319l-0.043,2.171
		c-0.001,0.041,0.004,0.068,0.016,0.082c0.011,0.014,0.037,0.02,0.078,0.021l1.834,0.035c0.123,0.002,0.205,0.026,0.246,0.07
		C39.277,70.275,39.297,70.354,39.294,70.468 M41.206,73.225c-0.001,0.113-0.024,0.191-0.066,0.234
		c-0.041,0.042-0.126,0.063-0.254,0.06l-3.429-0.066c-0.471-0.009-0.701-0.232-0.693-0.67l0.023-1.178
		c0.004-0.21,0.104-0.313,0.3-0.309l0.418,0.008c0.192,0.004,0.285,0.111,0.281,0.32l-0.016,0.849
		c-0.001,0.046,0.004,0.074,0.015,0.086c0.012,0.012,0.039,0.018,0.086,0.019l3.032,0.06c0.128,0.002,0.211,0.025,0.251,0.069
		c0.041,0.043,0.06,0.123,0.058,0.237L41.206,73.225z M41.153,71.396c-0.004,0.205-0.102,0.305-0.293,0.302l-0.411-0.008
		c-0.192-0.004-0.286-0.108-0.282-0.313l0.027-1.39l-1.308-0.025c-0.128-0.002-0.212-0.025-0.251-0.07
		c-0.04-0.044-0.06-0.123-0.058-0.237l0.006-0.226c0.001-0.114,0.023-0.192,0.065-0.234c0.042-0.043,0.127-0.063,0.254-0.061
		l1.308,0.024l0.008-0.369l-1.308-0.025c-0.128-0.002-0.212-0.025-0.252-0.069c-0.04-0.045-0.06-0.123-0.058-0.239l0.005-0.225
		c0.002-0.114,0.024-0.192,0.066-0.234c0.042-0.043,0.127-0.063,0.254-0.06l1.308,0.024l0.005-0.273
		c0.004-0.205,0.102-0.307,0.294-0.303l0.411,0.008c0.192,0.003,0.285,0.107,0.281,0.313L41.153,71.396z"/>
	<path clip-path="url(#SVGID_10_)" fill="#FFFFFF" d="M47.061,68.406c0.056,0.282-0.057,0.45-0.338,0.507l-3.438,0.684
		c-0.238,0.047-0.413,0.028-0.528-0.055c-0.114-0.085-0.194-0.236-0.237-0.456l-0.259-1.303c-0.029-0.144-0.018-0.25,0.03-0.32
		c0.049-0.069,0.143-0.119,0.281-0.146l3.727-0.741c0.139-0.027,0.243-0.018,0.314,0.032c0.07,0.049,0.12,0.142,0.146,0.281
		L47.061,68.406z M45.89,71.222c0.041,0.206-0.033,0.328-0.221,0.365l-0.443,0.089c-0.192,0.038-0.309-0.047-0.35-0.253l-0.16-0.806
		l-1.927,0.384c-0.125,0.023-0.212,0.021-0.261-0.016c-0.049-0.034-0.085-0.104-0.105-0.212l-0.048-0.241
		c-0.023-0.112-0.018-0.193,0.014-0.244c0.031-0.052,0.11-0.088,0.235-0.113l4.722-0.939c0.12-0.023,0.205-0.018,0.254,0.017
		c0.048,0.035,0.083,0.106,0.106,0.219l0.048,0.243c0.022,0.107,0.017,0.186-0.015,0.237c-0.033,0.05-0.109,0.087-0.23,0.111
		l-1.779,0.354L45.89,71.222z M47.89,72.08c0.023,0.112,0.017,0.193-0.015,0.244c-0.031,0.051-0.107,0.088-0.228,0.112l-3.553,0.706
		c-0.456,0.091-0.727-0.079-0.813-0.508L43.075,71.6c-0.039-0.201,0.037-0.321,0.229-0.359l0.43-0.087
		c0.103-0.019,0.18-0.011,0.232,0.025c0.051,0.036,0.088,0.11,0.11,0.223l0.146,0.731c0.007,0.036,0.017,0.06,0.028,0.071
		c0.012,0.012,0.035,0.014,0.072,0.007l3.155-0.628c0.12-0.023,0.205-0.02,0.254,0.016c0.049,0.035,0.084,0.107,0.107,0.219
		L47.89,72.08z M46.018,68.216l-0.145-0.732l-2.565,0.51l0.133,0.673c0.008,0.04,0.019,0.064,0.033,0.073
		c0.013,0.009,0.04,0.009,0.08,0.001l2.437-0.484C46.014,68.252,46.023,68.236,46.018,68.216"/>
	<path clip-path="url(#SVGID_10_)" fill="#FFFFFF" d="M51.349,65.598c0.045,0.105,0.057,0.186,0.036,0.241
		c-0.021,0.055-0.087,0.108-0.2,0.157l-2.95,1.269c-0.113,0.049-0.198,0.062-0.252,0.038c-0.055-0.024-0.105-0.089-0.15-0.193
		l-0.073-0.169c-0.047-0.109-0.061-0.191-0.043-0.247c0.018-0.055,0.086-0.107,0.204-0.158l1.044-0.449l-0.102-0.239
		c-0.086-0.196-0.038-0.334,0.143-0.412l0.371-0.159c0.175-0.075,0.306-0.015,0.391,0.182l0.103,0.24l0.999-0.431
		c0.113-0.049,0.198-0.062,0.253-0.039c0.054,0.025,0.106,0.091,0.153,0.2L51.349,65.598z M51.838,67.19
		c0.105,0.243,0.101,0.509-0.01,0.798c-0.112,0.289-0.323,0.527-0.635,0.716l0.206,0.479c0.576-0.277,0.972-0.483,1.189-0.615
		c0.084-0.046,0.154-0.062,0.21-0.046c0.057,0.016,0.105,0.068,0.145,0.161l0.126,0.295c0.04,0.093,0.052,0.162,0.035,0.209
		c-0.017,0.048-0.065,0.094-0.147,0.139c-0.549,0.315-1.123,0.603-1.723,0.859l-1.611,0.693c-0.113,0.048-0.197,0.061-0.252,0.037
		c-0.055-0.023-0.105-0.09-0.152-0.199l-0.092-0.213c-0.046-0.109-0.06-0.193-0.04-0.248c0.021-0.056,0.088-0.108,0.201-0.158
		l1.201-0.516l-0.205-0.479c-0.363,0.102-0.686,0.095-0.968-0.022c-0.281-0.118-0.476-0.303-0.584-0.554
		c-0.134-0.311-0.126-0.624,0.023-0.942c0.149-0.316,0.435-0.566,0.859-0.749l0.396-0.17c0.403-0.174,0.775-0.206,1.118-0.098
		C51.469,66.677,51.708,66.884,51.838,67.19 M50.956,67.562c-0.054-0.127-0.15-0.212-0.287-0.26
		c-0.137-0.047-0.283-0.038-0.438,0.029l-0.283,0.121c-0.16,0.069-0.269,0.169-0.33,0.302c-0.059,0.133-0.062,0.262-0.008,0.388
		c0.051,0.117,0.144,0.197,0.279,0.241c0.135,0.044,0.283,0.03,0.443-0.038l0.283-0.121c0.15-0.065,0.258-0.162,0.321-0.291
		C51,67.804,51.006,67.68,50.956,67.562 M54.401,69.039c0.081,0.188,0.031,0.322-0.15,0.399l-0.371,0.16
		c-0.176,0.075-0.304,0.019-0.385-0.17l-1.981-4.604c-0.08-0.188-0.033-0.321,0.143-0.396l0.371-0.16
		c0.18-0.077,0.311-0.021,0.393,0.166l0.637,1.485l0.472-0.203c0.117-0.05,0.204-0.064,0.257-0.044
		c0.054,0.022,0.104,0.086,0.149,0.19l0.124,0.289c0.047,0.109,0.06,0.191,0.04,0.248c-0.021,0.055-0.09,0.109-0.207,0.159
		l-0.472,0.203L54.401,69.039z"/>
	<path clip-path="url(#SVGID_10_)" fill="#FFFFFF" d="M54.944,63.009l2.095,1.558c0.11,0.068,0.179,0.137,0.208,0.209
		c0.029,0.072,0.003,0.157-0.079,0.255l-0.22,0.258c-0.086,0.101-0.161,0.151-0.228,0.153c-0.065,0.002-0.15-0.038-0.254-0.121
		l-1.471-1.18c-0.09-0.07-0.116-0.052-0.078,0.056l0.708,1.866c0.045,0.118,0.055,0.208,0.027,0.266
		c-0.028,0.061-0.114,0.119-0.258,0.177l-0.299,0.111c-0.181,0.068-0.311-0.023-0.39-0.276l-0.828-2.528
		c-0.047-0.152-0.051-0.272-0.015-0.363s0.11-0.176,0.222-0.255l0.25-0.179c0.104-0.074,0.203-0.115,0.295-0.122
		C54.723,62.885,54.828,62.924,54.944,63.009 M58.802,64.503c0.122,0.172,0.104,0.313-0.051,0.424l-0.329,0.236
		c-0.16,0.112-0.301,0.084-0.423-0.087l-1.109-1.555l-0.362,0.258c-0.101,0.072-0.18,0.102-0.238,0.09
		c-0.059-0.012-0.122-0.064-0.192-0.162l-0.163-0.229c-0.066-0.093-0.095-0.169-0.086-0.228c0.007-0.06,0.062-0.125,0.162-0.196
		l0.363-0.259l-0.494-0.69c-0.119-0.167-0.098-0.308,0.061-0.422l0.329-0.234c0.157-0.111,0.294-0.084,0.414,0.084L58.802,64.503z
		 M60.999,65.19c0.066,0.093,0.095,0.169,0.086,0.229c-0.008,0.059-0.064,0.126-0.168,0.2l-2.915,2.079
		c-0.379,0.27-0.695,0.227-0.951-0.13l-0.723-1.015c-0.121-0.171-0.104-0.313,0.051-0.423l0.341-0.243
		c0.085-0.063,0.16-0.085,0.226-0.072c0.064,0.012,0.13,0.065,0.196,0.158l0.533,0.746c0.024,0.033,0.044,0.054,0.059,0.06
		c0.016,0.005,0.038-0.002,0.067-0.023l2.603-1.856c0.104-0.074,0.185-0.105,0.244-0.095c0.059,0.013,0.122,0.064,0.187,0.157
		L60.999,65.19z M59.898,63.765c0.122,0.171,0.105,0.311-0.052,0.423l-0.334,0.238c-0.156,0.112-0.295,0.082-0.417-0.089
		l-2.158-3.027c-0.121-0.167-0.102-0.307,0.055-0.418l0.335-0.237c0.155-0.111,0.293-0.084,0.412,0.083L59.898,63.765z"/>
	<path clip-path="url(#SVGID_10_)" fill="#FFFFFF" d="M63.625,60.56c0.084,0.077,0.128,0.145,0.133,0.205
		c0.004,0.06-0.036,0.135-0.119,0.225l-1.574,1.715c-0.182,0.199-0.356,0.294-0.521,0.289c-0.165-0.006-0.331-0.086-0.5-0.24
		l-2.375-2.18c-0.105-0.096-0.158-0.187-0.164-0.271c-0.006-0.086,0.04-0.182,0.135-0.286l1.671-1.819
		c0.087-0.095,0.16-0.143,0.22-0.143c0.06-0.001,0.132,0.037,0.216,0.114l0.187,0.17c0.083,0.077,0.127,0.146,0.132,0.206
		c0.004,0.06-0.038,0.137-0.124,0.23l-1.268,1.382l0.569,0.523l1.075-1.17c0.086-0.095,0.158-0.143,0.216-0.145
		c0.058-0.003,0.129,0.034,0.214,0.111l0.186,0.171c0.087,0.08,0.133,0.151,0.137,0.211c0.005,0.058-0.036,0.136-0.123,0.229
		l-1.074,1.17l0.661,0.606c0.03,0.028,0.054,0.042,0.072,0.044c0.017,0.001,0.041-0.016,0.073-0.05l1.329-1.447
		c0.083-0.091,0.154-0.137,0.214-0.138s0.132,0.037,0.215,0.115L63.625,60.56z M65.539,59.853c0.152,0.139,0.163,0.278,0.032,0.42
		l-0.273,0.298c-0.13,0.141-0.27,0.143-0.421,0.003L63,58.852L62.496,59.4c-0.083,0.091-0.154,0.138-0.214,0.138
		s-0.134-0.039-0.221-0.118l-0.222-0.204c-0.084-0.077-0.127-0.145-0.13-0.202c-0.002-0.06,0.037-0.133,0.122-0.224l0.504-0.55
		l-1.15-1.056c-0.151-0.139-0.162-0.279-0.032-0.42l0.273-0.297c0.13-0.142,0.27-0.143,0.422-0.005L65.539,59.853z"/>
	<path clip-path="url(#SVGID_10_)" fill="#FFFFFF" d="M66.232,53.003c0,0.466,0.376,0.843,0.841,0.843
		c0.467,0,0.845-0.377,0.845-0.843c0-0.465-0.378-0.843-0.845-0.843C66.608,52.16,66.232,52.538,66.232,53.003"/>
	<path clip-path="url(#SVGID_10_)" fill="#FFFFFF" d="M11.365,53.003c0,0.466-0.377,0.843-0.843,0.843
		c-0.466,0-0.844-0.377-0.844-0.843c0-0.465,0.378-0.843,0.844-0.843C10.988,52.16,11.365,52.538,11.365,53.003"/>
	<path clip-path="url(#SVGID_10_)" fill="#B2B2B2" d="M200.171,18.434c0,0.602-0.238,1.12-0.714,1.555
		c-0.477,0.433-1.116,0.634-1.919,0.601c-0.681-0.025-1.239-0.226-1.677-0.601c-0.438-0.376-0.743-0.863-0.917-1.458
		c-0.065-0.168-0.077-0.302-0.035-0.399c0.043-0.096,0.164-0.145,0.363-0.145h0.633c0.161,0,0.269,0.024,0.32,0.072
		c0.053,0.049,0.104,0.164,0.155,0.346c0.079,0.258,0.226,0.488,0.443,0.689c0.217,0.201,0.468,0.305,0.753,0.311
		c0.407,0.013,0.702-0.08,0.883-0.282c0.182-0.2,0.272-0.437,0.272-0.709c0-0.304-0.099-0.55-0.297-0.738
		c-0.196-0.188-0.531-0.353-1.005-0.496c-0.382-0.11-0.698-0.217-0.948-0.32c-0.248-0.104-0.503-0.246-0.762-0.428
		c-0.26-0.181-0.451-0.408-0.578-0.681c-0.126-0.271-0.183-0.588-0.17-0.952c0.02-0.602,0.247-1.089,0.686-1.462
		c0.437-0.373,1.083-0.555,1.938-0.549c0.648,0.006,1.188,0.196,1.617,0.569c0.431,0.373,0.699,0.821,0.802,1.346
		c0.021,0.096,0.03,0.183,0.03,0.257c0,0.075-0.033,0.132-0.098,0.175c-0.064,0.042-0.164,0.063-0.301,0.063h-0.545
		c-0.161,0-0.273-0.024-0.335-0.073c-0.062-0.048-0.115-0.151-0.16-0.306c-0.064-0.233-0.188-0.431-0.369-0.592
		c-0.182-0.162-0.418-0.244-0.709-0.244c-0.727,0-1.105,0.279-1.138,0.836c-0.019,0.272,0.079,0.49,0.297,0.656
		c0.218,0.165,0.545,0.316,0.986,0.452c0.401,0.123,0.736,0.246,1.006,0.368c0.269,0.123,0.524,0.281,0.768,0.473
		c0.241,0.191,0.424,0.424,0.544,0.699C200.111,17.743,200.171,18.063,200.171,18.434"/>
	<path clip-path="url(#SVGID_10_)" fill="#B2B2B2" d="M205.673,20.008c0,0.148-0.028,0.252-0.087,0.311
		c-0.059,0.057-0.172,0.086-0.34,0.086h-3.333c-0.389,0-0.657-0.084-0.807-0.251c-0.149-0.169-0.224-0.41-0.224-0.72v-5.956
		c0-0.188,0.04-0.322,0.122-0.404c0.08-0.08,0.222-0.121,0.423-0.121h3.74c0.168,0,0.281,0.03,0.34,0.088
		c0.059,0.058,0.088,0.162,0.088,0.311v0.388c0,0.149-0.029,0.253-0.088,0.311c-0.059,0.059-0.172,0.088-0.34,0.088h-2.905v1.662
		h2.905c0.168,0,0.281,0.027,0.34,0.082s0.088,0.16,0.088,0.315v0.38c0,0.155-0.029,0.261-0.088,0.316
		c-0.059,0.054-0.172,0.082-0.34,0.082h-2.905v2.089c0,0.064,0.011,0.107,0.029,0.127c0.021,0.019,0.064,0.028,0.136,0.028h2.818
		c0.168,0,0.281,0.03,0.34,0.088c0.059,0.057,0.087,0.161,0.087,0.31V20.008z"/>
	<path clip-path="url(#SVGID_10_)" fill="#B2B2B2" d="M211.708,16.693c0,1.205-0.234,2.151-0.704,2.838
		c-0.47,0.686-1.145,1.029-2.025,1.029c-0.901,0-1.581-0.34-2.04-1.019c-0.461-0.681-0.69-1.629-0.69-2.848
		c0-1.217,0.232-2.171,0.695-2.861c0.463-0.69,1.141-1.034,2.035-1.034c0.894,0,1.573,0.344,2.036,1.034
		C211.478,14.522,211.708,15.476,211.708,16.693 M210.319,16.693c0-0.77-0.108-1.413-0.325-1.928
		c-0.218-0.515-0.556-0.772-1.016-0.772c-0.324,0-0.589,0.132-0.797,0.398c-0.207,0.266-0.35,0.589-0.428,0.972
		c-0.077,0.382-0.116,0.825-0.116,1.33c0,0.784,0.104,1.424,0.315,1.919c0.21,0.496,0.552,0.744,1.025,0.744
		c0.317,0,0.58-0.13,0.787-0.39c0.207-0.257,0.351-0.579,0.433-0.961C210.278,17.625,210.319,17.187,210.319,16.693"/>
	<path clip-path="url(#SVGID_10_)" fill="#B2B2B2" d="M213.831,20.036c0,0.279-0.133,0.418-0.397,0.418h-0.583
		c-0.266,0-0.399-0.139-0.399-0.418v-6.714c0-0.278,0.134-0.418,0.399-0.418h0.583c0.265,0,0.397,0.14,0.397,0.418v2.42h2.157v-2.42
		c0-0.278,0.133-0.418,0.398-0.418h0.584c0.265,0,0.397,0.14,0.397,0.418v6.714c0,0.279-0.133,0.418-0.397,0.418h-0.584
		c-0.266,0-0.398-0.139-0.398-0.418v-3.109h-2.157V20.036z"/>
	<path clip-path="url(#SVGID_10_)" fill="#B2B2B2" d="M223.104,20.008c0,0.148-0.029,0.252-0.087,0.311
		c-0.06,0.057-0.172,0.086-0.34,0.086h-3.333c-0.39,0-0.658-0.084-0.807-0.251c-0.149-0.169-0.224-0.41-0.224-0.72v-5.956
		c0-0.188,0.04-0.322,0.122-0.404c0.081-0.08,0.221-0.121,0.422-0.121h3.741c0.169,0,0.282,0.03,0.34,0.088
		c0.059,0.058,0.087,0.162,0.087,0.311v0.388c0,0.149-0.028,0.253-0.087,0.311c-0.058,0.059-0.171,0.088-0.34,0.088h-2.905v1.662
		h2.905c0.169,0,0.282,0.027,0.34,0.082c0.059,0.055,0.087,0.16,0.087,0.315v0.38c0,0.155-0.028,0.261-0.087,0.316
		c-0.058,0.054-0.171,0.082-0.34,0.082h-2.905v2.089c0,0.064,0.01,0.107,0.029,0.127c0.02,0.019,0.063,0.028,0.135,0.028h2.819
		c0.168,0,0.28,0.03,0.34,0.088c0.058,0.057,0.087,0.161,0.087,0.31V20.008z"/>
	<path clip-path="url(#SVGID_10_)" fill="#B2B2B2" d="M228.625,20.008c0,0.148-0.029,0.252-0.087,0.311
		c-0.058,0.057-0.171,0.086-0.34,0.086h-3.332c-0.39,0-0.658-0.084-0.808-0.251c-0.148-0.169-0.224-0.41-0.224-0.72v-5.956
		c0-0.188,0.041-0.322,0.122-0.404c0.081-0.08,0.221-0.121,0.422-0.121h3.741c0.169,0,0.282,0.03,0.34,0.088
		c0.059,0.058,0.087,0.162,0.087,0.311v0.388c0,0.149-0.028,0.253-0.087,0.311c-0.058,0.059-0.171,0.088-0.34,0.088h-2.905v1.662
		h2.905c0.169,0,0.282,0.027,0.34,0.082c0.059,0.055,0.087,0.16,0.087,0.315v0.38c0,0.155-0.028,0.261-0.087,0.316
		c-0.058,0.054-0.171,0.082-0.34,0.082h-2.905v2.089c0,0.064,0.01,0.107,0.03,0.127c0.019,0.019,0.063,0.028,0.135,0.028h2.818
		c0.169,0,0.282,0.03,0.34,0.088c0.058,0.057,0.087,0.161,0.087,0.31V20.008z"/>
	<path clip-path="url(#SVGID_10_)" fill="#B2B2B2" d="M234.747,17.996v2.04c0,0.279-0.132,0.418-0.398,0.418h-0.602
		c-0.267,0-0.399-0.139-0.399-0.418v-2.04l-2.069-4.519c-0.098-0.168-0.126-0.297-0.088-0.388c0.039-0.09,0.176-0.136,0.408-0.136
		h0.603c0.148,0,0.253,0.022,0.311,0.063c0.06,0.043,0.117,0.128,0.176,0.258l1.351,3.265l1.331-3.246
		c0.051-0.129,0.11-0.219,0.175-0.267c0.064-0.049,0.175-0.073,0.329-0.073h0.623c0.22,0,0.35,0.046,0.388,0.136
		c0.039,0.091,0.014,0.218-0.077,0.379L234.747,17.996z"/>
	<path clip-path="url(#SVGID_10_)" fill="#B2B2B2" d="M242.404,16.693c0,1.205-0.234,2.151-0.704,2.838
		c-0.47,0.686-1.145,1.029-2.025,1.029c-0.901,0-1.581-0.34-2.04-1.019c-0.461-0.681-0.69-1.629-0.69-2.848
		c0-1.217,0.232-2.171,0.695-2.861c0.462-0.69,1.141-1.034,2.035-1.034c0.894,0,1.571,0.344,2.036,1.034
		C242.174,14.522,242.404,15.476,242.404,16.693 M241.016,16.693c0-0.77-0.108-1.413-0.325-1.928
		c-0.218-0.515-0.556-0.772-1.016-0.772c-0.324,0-0.59,0.132-0.797,0.398c-0.207,0.266-0.35,0.589-0.428,0.972
		c-0.077,0.382-0.116,0.825-0.116,1.33c0,0.784,0.104,1.424,0.315,1.919c0.21,0.496,0.552,0.744,1.025,0.744
		c0.317,0,0.58-0.13,0.787-0.39c0.207-0.257,0.351-0.579,0.432-0.961C240.975,17.625,241.016,17.187,241.016,16.693"/>
	<path clip-path="url(#SVGID_10_)" fill="#B2B2B2" d="M248.031,17.772c0,0.92-0.215,1.614-0.642,2.084
		c-0.428,0.47-1.03,0.704-1.807,0.704c-0.778,0-1.38-0.234-1.809-0.704c-0.427-0.47-0.641-1.164-0.641-2.084v-4.401
		c0-0.279,0.132-0.418,0.398-0.418h0.583c0.266,0,0.397,0.139,0.397,0.418v4.381c0,1.069,0.357,1.604,1.07,1.604
		c0.712,0,1.067-0.535,1.067-1.604v-4.381c0-0.279,0.134-0.418,0.398-0.418h0.584c0.265,0,0.398,0.139,0.398,0.418V17.772z"/>
	<path clip-path="url(#SVGID_10_)" fill="#B2B2B2" d="M252.001,20.036c0,0.279-0.132,0.418-0.398,0.418h-0.602
		c-0.267,0-0.399-0.139-0.399-0.418v-5.898h-1.506c-0.168,0-0.28-0.029-0.34-0.087c-0.058-0.058-0.087-0.163-0.087-0.311v-0.389
		c0-0.148,0.029-0.252,0.087-0.31c0.06-0.059,0.172-0.088,0.34-0.088h4.558c0.168,0,0.281,0.029,0.34,0.088
		c0.058,0.058,0.088,0.162,0.088,0.31v0.389c0,0.148-0.03,0.253-0.088,0.311c-0.059,0.058-0.172,0.087-0.34,0.087h-1.652V20.036z"/>
	<path clip-path="url(#SVGID_10_)" fill="#B2B2B2" d="M256.099,20.036c0,0.279-0.133,0.418-0.398,0.418h-0.583
		c-0.266,0-0.398-0.139-0.398-0.418v-6.714c0-0.278,0.133-0.418,0.398-0.418h0.583c0.266,0,0.398,0.14,0.398,0.418v2.42h2.157v-2.42
		c0-0.278,0.133-0.418,0.397-0.418h0.584c0.266,0,0.398,0.14,0.398,0.418v6.714c0,0.279-0.133,0.418-0.398,0.418h-0.584
		c-0.265,0-0.397-0.139-0.397-0.418v-3.109h-2.157V20.036z"/>
	<path clip-path="url(#SVGID_10_)" fill="#B2B2B2" d="M268.068,18.277c-0.123,0.654-0.419,1.198-0.889,1.633
		c-0.469,0.433-1.054,0.65-1.753,0.65c-0.927,0-1.661-0.335-2.202-1.006c-0.54-0.67-0.811-1.633-0.811-2.889
		c0-1.263,0.248-2.224,0.744-2.881c0.495-0.658,1.207-0.986,2.133-0.986c0.718,0,1.315,0.209,1.792,0.627
		c0.476,0.417,0.74,0.943,0.792,1.579c0.013,0.168-0.008,0.286-0.063,0.354c-0.055,0.067-0.164,0.102-0.325,0.102h-0.545
		c-0.142,0-0.242-0.028-0.301-0.082c-0.059-0.056-0.109-0.164-0.155-0.327c-0.092-0.331-0.244-0.59-0.462-0.782
		c-0.218-0.191-0.468-0.283-0.753-0.276c-0.518,0.019-0.891,0.273-1.117,0.763c-0.227,0.489-0.341,1.125-0.341,1.909
		c0,0.763,0.139,1.403,0.414,1.919c0.275,0.514,0.675,0.772,1.2,0.772c0.304,0,0.563-0.12,0.776-0.359
		c0.215-0.24,0.353-0.499,0.418-0.778c0.039-0.188,0.086-0.307,0.141-0.359c0.055-0.053,0.161-0.078,0.316-0.078h0.611
		c0.189,0,0.308,0.039,0.355,0.116C268.094,17.976,268.102,18.103,268.068,18.277"/>
	<path clip-path="url(#SVGID_10_)" fill="#B2B2B2" d="M273.619,17.772c0,0.92-0.214,1.614-0.641,2.084
		c-0.429,0.47-1.03,0.704-1.809,0.704c-0.776,0-1.379-0.234-1.807-0.704c-0.428-0.47-0.642-1.164-0.642-2.084v-4.401
		c0-0.279,0.133-0.418,0.398-0.418h0.583c0.266,0,0.398,0.139,0.398,0.418v4.381c0,1.069,0.356,1.604,1.068,1.604
		c0.713,0,1.069-0.535,1.069-1.604v-4.381c0-0.279,0.133-0.418,0.397-0.418h0.584c0.266,0,0.398,0.139,0.398,0.418V17.772z"/>
	<path clip-path="url(#SVGID_10_)" fill="#B2B2B2" d="M279.138,20.008c0,0.148-0.029,0.252-0.088,0.311
		c-0.059,0.057-0.171,0.086-0.34,0.086h-3.118c-0.39,0-0.658-0.084-0.807-0.251c-0.149-0.169-0.225-0.41-0.225-0.72v-6.112
		c0-0.278,0.133-0.418,0.399-0.418h0.592c0.266,0,0.399,0.14,0.399,0.418v5.723c0,0.065,0.009,0.108,0.028,0.127
		c0.02,0.02,0.065,0.028,0.136,0.028h2.595c0.169,0,0.281,0.031,0.34,0.088c0.059,0.058,0.088,0.162,0.088,0.311V20.008z"/>
	<path clip-path="url(#SVGID_10_)" fill="#B2B2B2" d="M282.063,20.036c0,0.279-0.132,0.418-0.398,0.418h-0.603
		c-0.266,0-0.398-0.139-0.398-0.418v-5.898h-1.506c-0.168,0-0.28-0.029-0.34-0.087c-0.058-0.058-0.088-0.163-0.088-0.311v-0.389
		c0-0.148,0.03-0.252,0.088-0.31c0.06-0.059,0.172-0.088,0.34-0.088h4.558c0.168,0,0.281,0.029,0.34,0.088
		c0.058,0.058,0.088,0.162,0.088,0.31v0.389c0,0.148-0.03,0.253-0.088,0.311c-0.059,0.058-0.172,0.087-0.34,0.087h-1.652V20.036z"/>
	<path clip-path="url(#SVGID_10_)" fill="#B2B2B2" d="M289.678,17.772c0,0.92-0.214,1.614-0.641,2.084
		c-0.429,0.47-1.03,0.704-1.809,0.704c-0.776,0-1.379-0.234-1.807-0.704c-0.427-0.47-0.642-1.164-0.642-2.084v-4.401
		c0-0.279,0.133-0.418,0.398-0.418h0.583c0.266,0,0.398,0.139,0.398,0.418v4.381c0,1.069,0.356,1.604,1.068,1.604
		c0.713,0,1.069-0.535,1.069-1.604v-4.381c0-0.279,0.133-0.418,0.397-0.418h0.584c0.266,0,0.398,0.139,0.398,0.418V17.772z"/>
	<path clip-path="url(#SVGID_10_)" fill="#B2B2B2" d="M295.662,15.207c0,0.875-0.319,1.538-0.961,1.992l0.99,2.79
		c0.065,0.167,0.067,0.288,0.005,0.359c-0.061,0.071-0.189,0.106-0.384,0.106h-0.476c-0.162,0-0.277-0.024-0.345-0.073
		c-0.068-0.049-0.132-0.156-0.189-0.325l-0.826-2.399c-0.227,0.032-0.434,0.047-0.622,0.047H292v2.332
		c0,0.28-0.133,0.418-0.398,0.418h-0.583c-0.266,0-0.398-0.138-0.398-0.418v-6.47c0-0.227,0.052-0.386,0.155-0.477
		c0.104-0.09,0.278-0.136,0.524-0.136h1.643c0.796,0,1.449,0.187,1.957,0.559C295.408,13.884,295.662,14.449,295.662,15.207
		 M292,14.469v2.06h0.709c1.049,0,1.574-0.434,1.574-1.302c0-0.402-0.137-0.684-0.408-0.846c-0.272-0.161-0.661-0.242-1.166-0.242
		h-0.398c-0.143,0-0.229,0.019-0.262,0.057C292.017,14.236,292,14.326,292,14.469"/>
	<path clip-path="url(#SVGID_10_)" fill="#B2B2B2" d="M302.604,19.93c0.051,0.193,0.051,0.33,0,0.407
		c-0.054,0.078-0.169,0.117-0.351,0.117h-0.563c-0.175,0-0.296-0.023-0.365-0.067c-0.067-0.046-0.128-0.159-0.179-0.341
		l-0.525-1.769h-2.38l-0.515,1.731c-0.032,0.115-0.064,0.202-0.094,0.257c-0.028,0.054-0.081,0.099-0.154,0.135
		c-0.074,0.036-0.178,0.054-0.307,0.054h-0.515c-0.22,0-0.356-0.047-0.408-0.141c-0.052-0.094-0.045-0.225,0.02-0.393l2.021-6.336
		c0.084-0.252,0.2-0.427,0.345-0.524c0.146-0.097,0.329-0.146,0.55-0.146h0.515c0.24,0,0.424,0.044,0.554,0.132
		c0.13,0.087,0.237,0.264,0.321,0.529L302.604,19.93z M299.299,14.712l-0.71,2.39h1.691l-0.719-2.419
		c-0.039-0.129-0.08-0.195-0.126-0.195C299.391,14.488,299.345,14.563,299.299,14.712"/>
	<path clip-path="url(#SVGID_10_)" fill="#B2B2B2" d="M307.75,20.008c0,0.148-0.028,0.252-0.088,0.311
		c-0.058,0.057-0.171,0.086-0.34,0.086h-3.118c-0.389,0-0.657-0.084-0.807-0.251c-0.149-0.169-0.223-0.41-0.223-0.72v-6.112
		c0-0.278,0.132-0.418,0.397-0.418h0.593c0.266,0,0.399,0.14,0.399,0.418v5.723c0,0.065,0.009,0.108,0.028,0.127
		c0.019,0.02,0.064,0.028,0.136,0.028h2.594c0.169,0,0.282,0.031,0.34,0.088c0.06,0.058,0.088,0.162,0.088,0.311V20.008z"/>
	<path clip-path="url(#SVGID_10_)" fill="#B2B2B2" d="M315.455,18.277c-0.123,0.654-0.419,1.198-0.889,1.633
		c-0.47,0.433-1.055,0.65-1.754,0.65c-0.927,0-1.66-0.335-2.201-1.006c-0.54-0.67-0.812-1.633-0.812-2.889
		c0-1.263,0.248-2.224,0.743-2.881c0.496-0.658,1.207-0.986,2.134-0.986c0.719,0,1.316,0.209,1.792,0.627
		c0.477,0.417,0.74,0.943,0.792,1.579c0.013,0.168-0.008,0.286-0.063,0.354c-0.055,0.067-0.164,0.102-0.325,0.102h-0.546
		c-0.141,0-0.242-0.028-0.3-0.082c-0.06-0.056-0.111-0.164-0.155-0.327c-0.092-0.331-0.245-0.59-0.462-0.782
		c-0.218-0.191-0.468-0.283-0.753-0.276c-0.519,0.019-0.892,0.273-1.118,0.763c-0.226,0.489-0.34,1.125-0.34,1.909
		c0,0.763,0.138,1.403,0.414,1.919c0.274,0.514,0.675,0.772,1.199,0.772c0.305,0,0.563-0.12,0.776-0.359
		c0.214-0.24,0.354-0.499,0.418-0.778c0.039-0.188,0.086-0.307,0.142-0.359c0.055-0.053,0.16-0.078,0.315-0.078h0.612
		c0.188,0,0.306,0.039,0.354,0.116C315.479,17.976,315.488,18.103,315.455,18.277"/>
	<path clip-path="url(#SVGID_10_)" fill="#B2B2B2" d="M320.908,20.008c0,0.148-0.029,0.252-0.088,0.311
		c-0.059,0.057-0.172,0.086-0.34,0.086h-3.333c-0.388,0-0.657-0.084-0.806-0.251c-0.149-0.169-0.223-0.41-0.223-0.72v-5.956
		c0-0.188,0.039-0.322,0.12-0.404c0.081-0.08,0.222-0.121,0.423-0.121h3.74c0.169,0,0.282,0.03,0.341,0.088
		c0.059,0.058,0.087,0.162,0.087,0.311v0.388c0,0.149-0.028,0.253-0.087,0.311c-0.059,0.059-0.172,0.088-0.341,0.088h-2.904v1.662
		h2.904c0.169,0,0.282,0.027,0.341,0.082s0.087,0.16,0.087,0.315v0.38c0,0.155-0.028,0.261-0.087,0.316
		c-0.059,0.054-0.172,0.082-0.341,0.082h-2.904v2.089c0,0.064,0.01,0.107,0.028,0.127c0.021,0.019,0.065,0.028,0.137,0.028h2.817
		c0.168,0,0.281,0.03,0.34,0.088c0.059,0.057,0.088,0.161,0.088,0.31V20.008z"/>
	<path clip-path="url(#SVGID_10_)" fill="#B2B2B2" d="M327.021,13.371v6.587c0,0.149-0.037,0.27-0.111,0.36
		c-0.074,0.09-0.177,0.136-0.307,0.136h-0.281c-0.227,0-0.404-0.104-0.535-0.312l-2.759-4.341v4.235
		c0,0.279-0.133,0.418-0.397,0.418h-0.574c-0.267,0-0.398-0.139-0.398-0.418v-6.645c0-0.292,0.14-0.438,0.418-0.438h0.33
		c0.162,0,0.276,0.02,0.341,0.059c0.063,0.039,0.139,0.126,0.224,0.262l2.681,4.441v-4.344c0-0.278,0.133-0.418,0.398-0.418h0.573
		C326.89,12.953,327.021,13.093,327.021,13.371"/>
	<path clip-path="url(#SVGID_10_)" fill="#B2B2B2" d="M330.987,20.036c0,0.279-0.132,0.418-0.398,0.418h-0.603
		c-0.265,0-0.398-0.139-0.398-0.418v-5.898h-1.505c-0.169,0-0.281-0.029-0.341-0.087c-0.058-0.058-0.088-0.163-0.088-0.311v-0.389
		c0-0.148,0.03-0.252,0.088-0.31c0.06-0.059,0.172-0.088,0.341-0.088h4.557c0.168,0,0.281,0.029,0.34,0.088
		c0.058,0.058,0.088,0.162,0.088,0.31v0.389c0,0.148-0.03,0.253-0.088,0.311c-0.059,0.058-0.172,0.087-0.34,0.087h-1.652V20.036z"/>
	<path clip-path="url(#SVGID_10_)" fill="#B2B2B2" d="M338.495,20.008c0,0.148-0.029,0.252-0.087,0.311
		c-0.06,0.057-0.171,0.086-0.34,0.086h-3.333c-0.389,0-0.658-0.084-0.807-0.251c-0.148-0.169-0.223-0.41-0.223-0.72v-5.956
		c0-0.188,0.039-0.322,0.121-0.404c0.081-0.08,0.221-0.121,0.422-0.121h3.741c0.169,0,0.282,0.03,0.34,0.088
		c0.059,0.058,0.087,0.162,0.087,0.311v0.388c0,0.149-0.028,0.253-0.087,0.311c-0.058,0.059-0.171,0.088-0.34,0.088h-2.905v1.662
		h2.905c0.169,0,0.282,0.027,0.34,0.082c0.059,0.055,0.087,0.16,0.087,0.315v0.38c0,0.155-0.028,0.261-0.087,0.316
		c-0.058,0.054-0.171,0.082-0.34,0.082h-2.905v2.089c0,0.064,0.01,0.107,0.029,0.127c0.02,0.019,0.064,0.028,0.136,0.028h2.818
		c0.169,0,0.28,0.03,0.34,0.088c0.058,0.057,0.087,0.161,0.087,0.31V20.008z"/>
	<path clip-path="url(#SVGID_10_)" fill="#B2B2B2" d="M344.287,15.207c0,0.875-0.319,1.538-0.962,1.992l0.991,2.79
		c0.065,0.167,0.067,0.288,0.005,0.359c-0.061,0.071-0.188,0.106-0.385,0.106h-0.474c-0.162,0-0.277-0.024-0.347-0.073
		c-0.067-0.049-0.131-0.156-0.188-0.325l-0.826-2.399c-0.227,0.032-0.434,0.047-0.622,0.047h-0.854v2.332
		c0,0.28-0.133,0.418-0.398,0.418h-0.583c-0.266,0-0.398-0.138-0.398-0.418v-6.47c0-0.227,0.052-0.386,0.155-0.477
		c0.104-0.09,0.278-0.136,0.525-0.136h1.642c0.796,0,1.449,0.187,1.957,0.559C344.033,13.884,344.287,14.449,344.287,15.207
		 M340.625,14.469v2.06h0.71c1.049,0,1.572-0.434,1.572-1.302c0-0.402-0.136-0.684-0.407-0.846c-0.272-0.161-0.66-0.242-1.165-0.242
		h-0.399c-0.142,0-0.229,0.019-0.262,0.057C340.642,14.236,340.625,14.326,340.625,14.469"/>
	<path clip-path="url(#SVGID_10_)" fill="#95C11E" d="M39.031,31.078l-3.751-3.749c-3.271-3.271-8.314-3.714-12.067-1.332
		c0.026,0.148,0.043,0.302,0.043,0.458c0,1.427-1.158,2.583-2.584,2.583c-0.157,0-0.31-0.016-0.459-0.042
		c-2.379,3.753-1.937,8.795,1.334,12.067l4.033,4.035c0.521,0.52,1.202,0.779,1.885,0.779c0.68,0,1.362-0.26,1.882-0.779
		c1.04-1.043,1.04-2.729,0-3.769l-4.034-4.033c-1.708-1.71-1.708-4.492,0-6.201c1.71-1.708,4.491-1.708,6.2,0l3.749,3.749
		c1.042,1.041,2.728,1.041,3.769,0C40.071,33.805,40.071,32.118,39.031,31.078"/>
	<path clip-path="url(#SVGID_10_)" fill="#95C11E" d="M23.213,25.997c-0.217-1.209-1.272-2.127-2.541-2.127
		c-1.428,0-2.585,1.157-2.585,2.585c0,1.271,0.919,2.323,2.126,2.541c0.376-0.591,0.818-1.151,1.334-1.667
		C22.062,26.814,22.622,26.372,23.213,25.997"/>
	<path clip-path="url(#SVGID_10_)" fill="#5EA62B" d="M23.256,26.455c0-0.156-0.018-0.309-0.043-0.458
		c-0.592,0.375-1.152,0.817-1.666,1.332c-0.517,0.516-0.958,1.076-1.334,1.667c0.149,0.026,0.302,0.042,0.459,0.042
		C22.098,29.038,23.256,27.882,23.256,26.455"/>
	<path clip-path="url(#SVGID_10_)" fill="#95C11E" d="M35.575,48.557c0.157,0,0.31,0.018,0.458,0.043
		c2.381-3.752,1.938-8.795-1.333-12.067l-4.034-4.034c-1.039-1.04-2.726-1.04-3.767,0c-1.039,1.041-1.039,2.727,0,3.767l4.034,4.033
		c1.709,1.711,1.709,4.492,0,6.201c-1.708,1.708-4.49,1.708-6.2,0l-3.749-3.749c-1.04-1.041-2.727-1.041-3.767,0
		s-1.04,2.727,0,3.767l3.75,3.75c1.893,1.894,4.381,2.839,6.866,2.839c1.81,0,3.62-0.504,5.201-1.508
		c-0.027-0.147-0.042-0.3-0.042-0.457C32.992,49.714,34.147,48.557,35.575,48.557"/>
	<path clip-path="url(#SVGID_10_)" fill="#95C11E" d="M36.032,48.6c-0.374,0.592-0.816,1.152-1.333,1.668
		c-0.514,0.515-1.075,0.957-1.665,1.331c0.217,1.209,1.269,2.127,2.54,2.127c1.429,0,2.586-1.156,2.586-2.584
		C38.16,49.871,37.242,48.817,36.032,48.6"/>
	<path clip-path="url(#SVGID_10_)" fill="#5EA62B" d="M36.032,48.6c-0.148-0.025-0.3-0.043-0.458-0.043
		c-1.427,0-2.583,1.157-2.583,2.585c0,0.157,0.015,0.309,0.043,0.457c0.59-0.374,1.151-0.816,1.665-1.331
		C35.216,49.752,35.658,49.191,36.032,48.6"/>
	<path clip-path="url(#SVGID_10_)" fill="#009FE3" d="M41.601,39.441v11.007c0,1.47,1.191,2.663,2.664,2.663
		c1.47,0,2.663-1.193,2.663-2.663v-8.343h-2.663C42.792,42.105,41.601,40.914,41.601,39.441"/>
	<path clip-path="url(#SVGID_10_)" fill="#009FE3" d="M44.264,36.778h2.663v-9.103c0-1.471-1.192-2.664-2.663-2.664
		c-1.472,0-2.664,1.193-2.664,2.664v11.766C41.6,37.97,42.792,36.778,44.264,36.778"/>
	<path clip-path="url(#SVGID_10_)" fill="#009FE3" d="M57.554,42.105h-2.665v8.343c0,1.47,1.194,2.663,2.665,2.663
		s2.664-1.193,2.664-2.663V39.441C60.218,40.914,59.025,42.105,57.554,42.105"/>
	<path clip-path="url(#SVGID_10_)" fill="#009FE3" d="M57.554,30.682c-1.471,0-2.665,1.192-2.665,2.664v3.433h2.665
		c1.471,0,2.664,1.192,2.664,2.663v-6.096C60.218,31.874,59.025,30.682,57.554,30.682"/>
	<path clip-path="url(#SVGID_10_)" fill="#0080C9" d="M57.554,29.955c1.427,0,2.583-1.157,2.583-2.584
		c0-1.428-1.156-2.584-2.583-2.584c-1.428,0-2.583,1.156-2.583,2.584C54.971,28.798,56.126,29.955,57.554,29.955"/>
	<rect x="46.927" y="36.779" clip-path="url(#SVGID_10_)" fill="#009FE3" width="7.962" height="5.327"/>
	<path clip-path="url(#SVGID_10_)" fill="#0080C9" d="M44.264,36.778c-1.472,0-2.664,1.192-2.664,2.663
		c0,1.473,1.192,2.664,2.664,2.664h2.663v-5.327H44.264z"/>
	<path clip-path="url(#SVGID_10_)" fill="#0080C9" d="M57.554,36.778h-2.665v5.327h2.665c1.471,0,2.664-1.191,2.664-2.664
		C60.218,37.97,59.025,36.778,57.554,36.778"/>
</g>
</svg>
