<svg xmlns="http://www.w3.org/2000/svg" width="24" height="24">
    <defs>
        <clipPath id="clip-path">
            <path id="사각형_6138" data-name="사각형 6138" class="cls-1" d="M0 0h9.236v10.107H0z"/>
        </clipPath>
        <clipPath id="clip-path-2">
            <path id="패스_6331" data-name="패스 6331" class="cls-1" d="M109.625-151.543a4.609 4.609 0 0 1-.787 1.341 3.518 3.518 0 0 1-.991.788 3.17 3.17 0 0 1-1.156.328 5.624 5.624 0 0 1-1.243-.014 4.542 4.542 0 0 1-1.291-.385 2.523 2.523 0 0 1-.908-.678 2.278 2.278 0 0 1-.462-1.048 3.806 3.806 0 0 1 .079-1.352 8.594 8.594 0 0 1 .39-1.292 10.57 10.57 0 0 1 .674-1.465 10.209 10.209 0 0 1 1-1.434 6.667 6.667 0 0 1 1.313-1.19 5.332 5.332 0 0 1 1.63-.763 4.9 4.9 0 0 1 1.97-.142 3.475 3.475 0 0 1 1.1.3 1.666 1.666 0 0 1 .63.495 1.367 1.367 0 0 1 .21.647 2.238 2.238 0 0 1-.029.685 1.981 1.981 0 0 1-.218.625 1.3 1.3 0 0 1-.33.4 1.1 1.1 0 0 1-.4.2 1.038 1.038 0 0 1-.426.034 1.213 1.213 0 0 1-.688-.323 3.682 3.682 0 0 0 .3-.572 1.988 1.988 0 0 0 .176-.555 1.035 1.035 0 0 0-.016-.6.451.451 0 0 0-.389-.276 1.046 1.046 0 0 0-.732.238 3.516 3.516 0 0 0-.773.661 7.6 7.6 0 0 0-.759.978c-.249.378-.472.764-.683 1.162a12.748 12.748 0 0 0-.537 1.187 6.938 6.938 0 0 0-.322 1.077 3.159 3.159 0 0 0-.049.82 1.147 1.147 0 0 0 .172.531.9.9 0 0 0 .34.324 1.41 1.41 0 0 0 .49.138 2.2 2.2 0 0 0 .652-.011 4.65 4.65 0 0 0 .751-.18 6.2 6.2 0 0 0 .732-.238 3.3 3.3 0 0 1 .58-.441z" transform="translate(-102.759 158.89)"/>
        </clipPath>
        <clipPath id="clip-path-3">
            <path id="패스_6330" data-name="패스 6330" class="cls-1" d="M93-151.757h13.02V-164H93z" transform="translate(-93 164)"/>
        </clipPath>
        <clipPath id="clip-path-4">
            <path id="패스_6335" data-name="패스 6335" class="cls-2" d="M123-152.852a.422.422 0 0 1 .3.161.957.957 0 0 0-.046-.315.451.451 0 0 0-.389-.276 1.046 1.046 0 0 0-.732.238 3.516 3.516 0 0 0-.773.661 7.6 7.6 0 0 0-.759.978c-.249.378-.472.764-.683 1.162a12.741 12.741 0 0 0-.537 1.187 6.941 6.941 0 0 0-.322 1.077 3.159 3.159 0 0 0-.049.82 1.215 1.215 0 0 0 .17.524.471.471 0 0 1-.031-.095 3.16 3.16 0 0 1 .049-.82 6.941 6.941 0 0 1 .322-1.077 12.744 12.744 0 0 1 .537-1.187c.211-.4.433-.784.683-1.162a7.6 7.6 0 0 1 .759-.978 3.862 3.862 0 0 1 .77-.668 1.085 1.085 0 0 1 .731-.23z" transform="translate(-118.998 153.283)"/>
        </clipPath>
        <clipPath id="clip-path-5">
            <path id="패스_6334" data-name="패스 6334" class="cls-2" d="M6-196.531h73.068V-249H6z" transform="translate(-6 249)"/>
        </clipPath>
        <clipPath id="clip-path-6">
            <path id="패스_6338" data-name="패스 6338" class="cls-2" d="M109.774-117.752a3.518 3.518 0 0 1-.991.788 3.171 3.171 0 0 1-1.156.328 5.624 5.624 0 0 1-1.243-.014 4.543 4.543 0 0 1-1.291-.385 2.523 2.523 0 0 1-.908-.678 2.28 2.28 0 0 1-.275-.449 2.461 2.461 0 0 0 .415.878 2.522 2.522 0 0 0 .913.692 4.545 4.545 0 0 0 1.279.348 5.624 5.624 0 0 0 1.243.014 3.024 3.024 0 0 0 1.142-.371 3.343 3.343 0 0 0 1.017-.708 4.608 4.608 0 0 0 .787-1.341l-.452.227a4.226 4.226 0 0 1-.48.671z" transform="translate(-103.909 118.649)"/>
        </clipPath>
        <clipPath id="clip-path-8">
            <path id="패스_6341" data-name="패스 6341" class="cls-2" d="M141.177-151.348a2.239 2.239 0 0 1-.029.685 1.981 1.981 0 0 1-.218.625 1.294 1.294 0 0 1-.33.4 1.1 1.1 0 0 1-.4.2 1.038 1.038 0 0 1-.426.034 1.363 1.363 0 0 1-.417-.138c-.047.08-.077.162-.131.244a1.213 1.213 0 0 0 .688.323 1.038 1.038 0 0 0 .426-.034 1.1 1.1 0 0 0 .4-.2 1.418 1.418 0 0 0 .33-.4 1.982 1.982 0 0 0 .218-.625 2.239 2.239 0 0 0 .029-.685 1.269 1.269 0 0 0-.139-.429z" transform="translate(-139.23 151.348)"/>
        </clipPath>
        <style>
            .cls-1{fill:#f6d131}.cls-2{fill:#d59116}.cls-9{clip-path:url(#clip-path-5)}
        </style>
    </defs>
    <g id="그룹_8022" data-name="그룹 8022" transform="translate(-1820.001 -846)">
        <circle id="타원_1114" data-name="타원 1114" class="cls-1" cx="12" cy="12" r="12" transform="translate(1820.001 846)"/>
        <circle id="타원_1115" data-name="타원 1115" class="cls-2" cx="9" cy="9" r="9" transform="translate(1823.001 849)"/>
        <g id="그룹_7764" data-name="그룹 7764" transform="translate(1823.732 849.732)">
            <circle id="타원_1116" data-name="타원 1116" cx="8.653" cy="8.653" r="8.653" style="fill:#f2ba1d"/>
        </g>
        <g id="그룹_7762" data-name="그룹 7762" transform="translate(1827.3 852.721)">
            <g id="그룹_7761" data-name="그룹 7761">
                <g id="그룹_7753" data-name="그룹 7753" style="opacity:.9;isolation:isolate">
                    <g id="그룹_7752" data-name="그룹 7752" style="clip-path:url(#clip-path)">
                        <g id="그룹_7751" data-name="그룹 7751" transform="translate(.161 .237)" style="clip-path:url(#clip-path-2)">
                            <g id="그룹_7750" data-name="그룹 7750" transform="translate(-1.897 -.993)" style="clip-path:url(#clip-path-3)">
                                <path id="패스_6329" data-name="패스 6329" class="cls-1" d="m86.4-170.376 11.487-3.732 3.894 11.983-11.481 3.731z" transform="translate(-87.685 172.144)"/>
                            </g>
                        </g>
                    </g>
                </g>
            </g>
            <g id="그룹_7756" data-name="그룹 7756" transform="translate(3.316 1.326)" style="clip-path:url(#clip-path-4)">
                <g id="그룹_7755" data-name="그룹 7755" class="cls-9" transform="translate(-21.959 -18.601)">
                    <path id="패스_6333" data-name="패스 6333" class="cls-2" d="m107.6-159.115 6.228-2.024 2.49 7.665-6.228 2.024z" transform="translate(-87.856 178.212)"/>
                </g>
            </g>
            <g id="그룹_7758" data-name="그룹 7758" transform="translate(.384 8.057)" style="clip-path:url(#clip-path-6)">
                <g id="그룹_7757" data-name="그룹 7757" class="cls-9" transform="translate(-19.027 -25.331)">
                    <path id="패스_6336" data-name="패스 6336" class="cls-2" d="m98.927-127.834 7.24-2.352 1.492 4.593-7.24 2.352z" transform="translate(-80.868 153.275)"/>
                </g>
            </g>
            <g id="그룹_7760" data-name="그룹 7760" transform="translate(7.248 1.702)" style="clip-path:url(#clip-path-8)">
                <g id="그룹_7759" data-name="그룹 7759" class="cls-9" transform="translate(-25.891 -18.977)">
                    <path id="패스_6339" data-name="패스 6339" class="cls-2" d="m134.345-154.832 2.984-.97 1.026 3.158-2.984.97z" transform="translate(-109.404 173.913)"/>
                </g>
            </g>
        </g>
    </g>
</svg>
