<svg xmlns="http://www.w3.org/2000/svg" width="40" height="40" viewBox="0 0 40 40">
    <defs>
        <style>
            .cls-3{fill:#666;stroke:transparent;stroke-miterlimit:10}
        </style>
    </defs>
    <g id="그룹_8344" data-name="그룹 8344" transform="translate(-2355 -10)">
        <g id="구성_요소_169" data-name="구성 요소 169" transform="translate(2355 10)">
            <g id="구성_요소_172_18" data-name="구성 요소 172 – 18" style="opacity:.998">
                <path id="사각형_4951" data-name="사각형 4951" style="fill:none" d="M0 0h40v40H0z"/>
                <g id="그룹_8354" data-name="그룹 8354" transform="translate(-1677.217 -124.264)">
                    <path id="합치기_174" data-name="합치기 174" class="cls-3" d="M7.979 24.265H3a3 3 0 0 1-3-3V6.222a3 3 0 0 1 3-3h1.737a3.7 3.7 0 0 1 7.4 0h1.628a3 3 0 0 1 3 3v.1h-5.939a2.79 2.79 0 0 0-2.781 2.623L7.24 22.553a2.263 2.263 0 0 0 .74 1.71zm2.736-21.043a2.282 2.282 0 0 0-4.556 0z" transform="translate(1685.001 130.999)"/>
                    <g id="그룹_8349" data-name="그룹 8349" transform="translate(1693.524 138.562)">
                        <path id="제외_84" data-name="제외 84" class="cls-3" d="M13.483 16.7H2.428a2.427 2.427 0 0 1-2.423-2.57l.7-11.848A2.429 2.429 0 0 1 3.129 0h9.653A2.429 2.429 0 0 1 15.2 2.284l.7 11.848a2.427 2.427 0 0 1-2.423 2.57zM5.047 3.328A.672.672 0 0 0 4.376 4a3.5 3.5 0 1 0 7 0 .672.672 0 0 0-1.344 0 2.157 2.157 0 1 1-4.313 0 .672.672 0 0 0-.672-.672z"/>
                    </g>
                </g>
            </g>
        </g>
    </g>
</svg>
