<svg xmlns="http://www.w3.org/2000/svg" xmlns:xlink="http://www.w3.org/1999/xlink" width="58" height="58" viewBox="0 0 58 58">
  <defs>
    <clipPath id="clip-path">
      <rect id="사각형_9135" data-name="사각형 9135" width="33" height="28.604" fill="none"/>
    </clipPath>
  </defs>
  <g id="주식" transform="translate(-140 -2053)">
    <rect id="사각형_9131" data-name="사각형 9131" width="58" height="58" transform="translate(140 2053)" fill="#5e85ed"/>
    <g id="그룹_14740" data-name="그룹 14740" transform="translate(153 2066)">
      <g id="그룹_14739" data-name="그룹 14739" transform="translate(0 0)" clip-path="url(#clip-path)">
        <path id="패스_8067" data-name="패스 8067" d="M1.552,20.818a1.552,1.552,0,0,1-1.1-2.649L9.679,8.945a1.55,1.55,0,0,1,2.195,0l4.8,4.8L28.352,2.066a1.551,1.551,0,1,1,2.194,2.194L17.769,17.035a1.551,1.551,0,0,1-2.194,0l-4.8-4.8L2.649,20.364a1.547,1.547,0,0,1-1.1.454" transform="translate(0 0.389)" fill="#fff"/>
        <path id="패스_8068" data-name="패스 8068" d="M27.241.021,21.068,1.675a.621.621,0,0,0-.278,1.039l4.519,4.519a.621.621,0,0,0,1.039-.278L28,.781a.62.62,0,0,0-.76-.76" transform="translate(4.976 0)" fill="#fff"/>
        <path id="패스_8069" data-name="패스 8069" d="M31.434,23.644H1.552a1.552,1.552,0,0,1,0-3.1H31.434a1.552,1.552,0,0,1,0,3.1" transform="translate(0 4.961)" fill="#fff"/>
      </g>
    </g>
  </g>
</svg>
