<svg height="52" width="52" xmlns="http://www.w3.org/2000/svg" xmlns:xlink="http://www.w3.org/1999/xlink"><linearGradient id="a" gradientUnits="objectBoundingBox" x1=".5" x2=".5" y2="1"><stop offset="0" stop-color="#e0f2fa"/><stop offset="1" stop-color="#b4dff2"/></linearGradient><linearGradient id="b" gradientUnits="objectBoundingBox" x1=".5" x2=".5" y2="1"><stop offset="0" stop-color="#f2fbff"/><stop offset="1" stop-color="#e0f2fa"/></linearGradient><clipPath id="c"><path d="m0 0h52v52h-52z" transform="translate(-11326 19718)"/></clipPath><g clip-path="url(#c)" transform="translate(11326 -19718)"><path d="m1344.556 359.444a6.722 6.722 0 0 0 -6.7-6.722 6.722 6.722 0 1 0 -13.444 0h-.017a6.722 6.722 0 1 0 0 13.444h13.619a6.722 6.722 0 0 0 6.542-6.722z" fill="url(#a)" transform="translate(-12637.559 19383.143)"/><path d="m1356.053 365.193a9.6 9.6 0 0 0 -9.572-9.6 9.6 9.6 0 0 0 -19.193 0h-.025a9.6 9.6 0 0 0 0 19.193h19.443a9.6 9.6 0 0 0 9.347-9.593z" fill="url(#b)" transform="translate(-12634.491 19387.193)"/></g></svg>